<?xml version="1.0" encoding="UTF-8" standalone="no"?>
<!-- Created with Inkscape (http://www.inkscape.org/) -->

<svg
   width="210mm"
   height="297mm"
   viewBox="0 0 210 297"
   version="1.1"
   id="svg5"
   sodipodi:docname="mint_leaves_logo.svg"
   inkscape:version="1.1.2 (0a00cf5339, 2022-02-04)"
   xmlns:inkscape="http://www.inkscape.org/namespaces/inkscape"
   xmlns:sodipodi="http://sodipodi.sourceforge.net/DTD/sodipodi-0.dtd"
   xmlns="http://www.w3.org/2000/svg"
   xmlns:svg="http://www.w3.org/2000/svg">
  <sodipodi:namedview
     id="namedview7"
     pagecolor="#ffffff"
     bordercolor="#111111"
     borderopacity="1"
     inkscape:pageshadow="0"
     inkscape:pageopacity="0"
     inkscape:pagecheckerboard="1"
     inkscape:document-units="mm"
     showgrid="false"
     inkscape:zoom="1.0998546"
     inkscape:cx="98.194798"
     inkscape:cy="538.70757"
     inkscape:window-width="2560"
     inkscape:window-height="1376"
     inkscape:window-x="0"
     inkscape:window-y="27"
     inkscape:window-maximized="1"
     inkscape:current-layer="layer1" />
  <defs
     id="defs2" />
  <g
     inkscape:label="Layer 1"
     inkscape:groupmode="layer"
     id="layer1">
    <path
       style="fill:#000000;stroke-width:0.310705"
       d="m 153.21257,275.67612 c -0.24981,-0.38481 -1.08079,-2.37694 -1.84744,-4.42753 -3.60284,-9.63682 -12.35181,-29.86931 -15.04426,-34.79084 l -0.84511,-1.54544 -2.31146,-0.38588 c -1.56766,-0.2615 -2.4335,-0.28489 -2.69054,-0.0744 -0.20835,0.17327 -1.43594,1.88082 -2.72795,3.79524 -2.37354,3.51694 -5.57859,7.28305 -8.42667,9.90184 -3.40957,3.13488 -8.87568,6.55774 -11.72918,7.3446 -1.47677,0.40714 -1.47933,0.21686 -0.0319,-2.37046 l 1.13245,-2.02497 -0.89932,0.67396 c -0.49431,0.371 -2.00584,1.57882 -3.35834,2.68384 -2.80152,2.28924 -7.180579,4.60166 -10.073836,5.31963 -1.082805,0.26895 -2.035602,0.42202 -2.117137,0.34017 -0.08504,-0.085 0.349738,-1.13798 0.958856,-2.34739 0.609118,-1.20952 1.107468,-2.27478 1.107468,-2.36737 0,-0.0957 -0.664396,0.16477 -1.475915,0.57297 -2.956189,1.48485 -7.36937,3.07493 -9.677002,3.48654 -2.520452,0.44966 -6.519901,0.52832 -7.800112,0.15414 -0.757942,-0.22111 -0.723925,-0.28064 1.342717,-2.37695 l 2.119582,-2.14977 -4.760581,-0.20304 c -5.652466,-0.2413 -10.172482,-1.071 -14.900534,-2.73646 -3.538093,-1.2463 -5.060994,-2.03326 -4.788432,-2.47431 0.08504,-0.14351 1.000314,-0.80047 2.026778,-1.4622 1.02689,-0.66121 1.867431,-1.30732 1.868919,-1.43542 0.0016,-0.12862 -0.40289,-0.2328 -0.898263,-0.2328 -1.542567,0 -7.820096,-1.17359 -10.750241,-2.00967 -1.537996,-0.43903 -3.976381,-1.3746 -5.418704,-2.07939 l -2.622397,-1.2816 0.863183,-0.68884 c 0.475176,-0.37844 1.69001,-1.08355 2.700104,-1.56627 1.009882,-0.48262 1.836177,-0.95673 1.835965,-1.05347 -2.13e-4,-0.0957 -2.472934,-1.5515 -5.495031,-3.23279 -5.389258,-2.99829 -9.587282,-5.63748 -11.438023,-7.19078 l -0.93228,-0.78239 0.93228,-0.77283 c 0.512382,-0.42521 1.663753,-1.08897 2.558083,-1.47581 0.894011,-0.38694 1.628354,-0.80471 1.63133,-0.92803 0.0028,-0.12331 -0.43478,-0.45285 -0.972675,-0.7303 -1.553941,-0.80365 -8.015694,-5.05398 -9.974439,-6.56104 -0.982242,-0.75582 -1.786533,-1.55245 -1.786533,-1.76995 0,-0.21792 0.352927,-0.5836 0.783455,-0.81535 0.431592,-0.23067 0.745186,-0.51663 0.699476,-0.63463 -0.04252,-0.11799 -0.936532,-0.8972 -1.97873,-1.73029 -1.041772,-0.83342 -3.119258,-2.65727 -4.616646,-4.05314 l -2.722534,-2.53788 0.887633,-0.4401 c 0.488995,-0.24237 1.692136,-0.68672 2.674697,-0.98649 0.982243,-0.29978 1.785577,-0.63782 1.784301,-0.74944 -0.0012,-0.11268 -0.855741,-0.90358 -1.899215,-1.75762 -2.521939,-2.06526 -8.712192,-8.55082 -8.5696393,-8.97838 0.063782,-0.18603 1.1126767,-0.66652 2.3347395,-1.06898 l 2.2220578,-0.73031 -1.7603826,-2.06781 C 5.5023157,184.54251 0.69953233,176.9295 1.1493017,176.47983 1.255605,176.37353 2.592369,176.20876 4.1240933,176.1099 l 2.7850403,-0.18072 -1.8080066,-2.52024 c -1.8329879,-2.55521 -3.7829094,-6.16676 -4.17049127,-7.72453 -0.2083544,-0.83767 -0.1849677,-0.85468 1.19899497,-0.85468 H 3.5412323 L 2.4719274,162.51541 C 1.1164539,159.58165 0.13134121,155.4574 0.06224411,152.42733 l -0.053152,-2.35611 1.06377709,-0.1063 c 1.3076369,-0.12438 4.3619436,0.87487 7.5514675,2.47219 1.3204996,0.6612 2.5257663,1.20229 2.6782053,1.20229 0.152013,0 0.348674,-0.6357 0.436906,-1.41352 0.08504,-0.77707 0.240246,-1.49451 0.339108,-1.59348 0.382692,-0.3827 4.797574,1.18198 7.371071,2.61229 0.09567,0.0532 0.307216,-0.42946 0.465608,-1.07408 0.2732,-1.10726 0.349738,-1.16658 1.376947,-1.07059 0.598488,0.0532 2.127554,0.371 3.398623,0.69948 3.142645,0.81216 3.112135,0.81854 2.790249,-0.56766 -0.402889,-1.7354 -0.410331,-1.72775 1.318799,-1.49845 1.295412,0.17221 5.949796,1.53853 7.61525,2.23609 0.205165,0.085 0.409267,-0.16158 0.465608,-0.56447 0.09567,-0.71117 0.135005,-0.71649 3.966389,-0.62506 l 3.864763,0.0957 -2.312628,-2.27532 c -2.801199,-2.75623 -7.436554,-8.39573 -7.436554,-9.04758 0,-0.0957 0.734555,-0.21154 1.631224,-0.26257 l 1.631224,-0.0957 -1.285738,-1.39821 c -1.912822,-2.08003 -5.394468,-6.84646 -5.394468,-7.38521 0,-0.39545 0.417772,-0.44434 2.640999,-0.30509 l 2.640893,0.16477 -2.270319,-2.41329 c -2.84085,-3.01986 -7.361398,-9.59707 -7.361398,-10.7105 0,-0.0957 0.75688,-0.16796 1.681187,-0.16796 h 1.681293 l -1.651422,-3.18476 c -1.557024,-3.00298 -3.507584,-8.17201 -3.199729,-8.47986 0.21048,-0.21048 3.67246,0.47624 4.828721,0.95886 0.555966,0.23174 1.009881,0.34868 1.009881,0.25938 0,-0.085 -0.610181,-1.16626 -1.355686,-2.39471 -2.39108,-3.93888 -4.232466,-8.0762 -4.985944,-11.203111 l -0.215795,-0.896137 1.910695,0.215796 c 1.05134,0.119059 1.850422,0.106303 1.77686,-0.03189 -0.537895,-1.010945 -1.652485,-3.622285 -2.101297,-4.920674 -0.62719,-1.81481 -1.41798,-5.97871 -1.180286,-6.216405 0.08504,-0.08504 1.172844,0.201977 2.40777,0.647387 1.234925,0.445411 2.312097,0.743061 2.393631,0.661207 0.08504,-0.08504 -0.279577,-0.994999 -0.801526,-2.030499 -1.687353,-3.342601 -3.386505,-9.325989 -3.429558,-12.077119 -0.01063,-0.783455 0.253002,-0.727114 3.206427,0.68672 0.866372,0.414582 1.609645,0.71861 1.652485,0.676089 0.04252,-0.04252 -0.395449,-1.539591 -0.973739,-3.326125 -1.022637,-3.160184 -1.473044,-5.679572 -1.897832,-10.627672 -0.2243,-2.606451 -0.03189,-2.874016 1.482824,-2.063454 0.597425,0.319973 0.628253,0.280641 0.428403,-0.54321 -0.295524,-1.219617 -0.617623,-9.743335 -0.368873,-9.743335 0.110556,0 1.12639,0.419898 2.257032,0.93228 1.130642,0.512382 2.098002,0.93228 2.149665,0.93228 0.05315,0 -0.23493,-0.965234 -0.635693,-2.145626 -1.089928,-3.204301 -1.855206,-9.039821 -1.185495,-9.039821 0.122249,0 0.824914,0.229615 1.560426,0.511319 0.735619,0.280641 1.387365,0.456041 1.447958,0.388007 0.06378,-0.06378 -0.149888,-1.38088 -0.467735,-2.918876 -0.717547,-3.471655 -0.821724,-10.591429 -0.169022,-11.484909 1.157005,-1.582432 7.052161,1.620382 13.173849,7.157193 l 2.252674,2.037304 v -2.526512 c 0,-2.473892 0.01063,-2.52226 0.699476,-2.321134 2.154023,0.632505 6.955744,4.866462 8.665101,7.639702 0.403952,0.654829 0.820661,1.194318 0.926965,1.198889 0.106303,0.0046 0.291271,-1.118523 0.411393,-2.495895 0.152014,-1.739442 0.355053,-2.556701 0.666522,-2.67608 1.256718,-0.482617 7.353425,4.673413 10.447064,8.834655 0.795148,1.069943 1.506955,1.838941 1.580836,1.708826 0.07441,-0.12969 0.310406,-1.390022 0.524075,-2.799816 0.314658,-2.066537 0.493248,-2.563398 0.924839,-2.563398 1.520775,0 7.818183,5.610901 10.227122,9.112213 0.549588,0.798338 1.09705,1.449445 1.21696,1.446469 0.120123,-0.0028 0.546399,-0.764321 0.948226,-1.691498 1.236095,-2.855839 1.296688,-2.890494 2.649822,-1.515141 1.423933,1.447319 4.793535,6.446763 5.956812,8.838056 l 0.847238,1.742311 1.065903,-2.130637 c 0.585731,-1.171887 1.182093,-2.130743 1.324007,-2.130743 0.142447,0 0.936535,0.741997 1.765062,1.649615 1.469,1.607943 3.6174,4.914401 5.73943,8.83306 0.57722,1.06601 1.13202,1.939929 1.2328,1.941949 0.0957,0.0021 0.3391,-0.339108 0.52939,-0.75688 0.19028,-0.418835 0.71117,-1.337614 1.15573,-2.042405 0.68034,-1.078341 0.88338,-1.219831 1.27691,-0.892948 0.76007,0.630379 3.73454,6.947878 4.67979,9.93904 0.48049,1.521519 0.96736,2.766756 1.08121,2.767182 0.11375,3.18e-4 0.9663,-0.838734 1.89401,-1.863604 0.92803,-1.024764 1.77261,-1.864241 1.87721,-1.864241 0.5953,0 2.6714,9.521906 2.69224,12.350531 0.005,0.726051 0.12225,1.320499 0.26044,1.320499 0.13819,0 1.08174,-0.83767 2.09726,-1.861477 1.01519,-1.023701 2.00605,-1.862859 2.20111,-1.864241 0.41565,-0.0032 1.65717,6.237665 1.69841,8.541683 0.0106,0.854679 0.11906,2.279249 0.23068,3.16635 l 0.20198,1.612834 1.84064,-1.379817 c 1.01201,-0.759005 1.93918,-1.379817 2.05962,-1.379817 0.57192,0 2.22812,6.166868 2.81343,10.472577 0.2041,1.50281 0.41139,2.782382 0.46135,2.843507 0.0532,0.06378 0.88232,-0.342297 1.85053,-0.896137 1.3306,-0.761132 1.82013,-0.911019 2.00414,-0.61337 0.41777,0.675026 0.69416,6.133294 0.46135,9.083224 l -0.22323,2.81663 1.04602,-0.22961 c 1.93313,-0.42309 1.95248,-0.41353 2.1687,1.06899 0.11161,0.76857 0.30828,3.95153 0.4369,7.07218 0.20304,4.94302 0.29234,5.62517 0.68991,5.29467 0.25088,-0.20835 1.66588,-2.12064 3.14328,-4.24885 2.43233,-3.50378 6.30379,-8.25259 7.58825,-9.30765 0.44435,-0.36462 0.6357,-0.14989 1.64026,1.84607 l 1.13766,2.25896 0.70692,-1.22462 c 3.38331,-5.85841 6.68733,-10.44872 7.65469,-10.63496 0.31465,-0.0638 0.8366,0.57617 1.51492,1.84884 0.87382,1.64005 1.07314,1.84703 1.28213,1.33358 0.13607,-0.3338 0.67077,-1.73243 1.18836,-3.10716 0.9089,-2.415108 3.34292,-6.66639 3.81608,-6.66639 0.12756,0 0.68672,0.696287 1.24364,1.547989 0.55703,0.851489 1.08206,1.549264 1.16753,1.550859 0.085,0.0016 0.63995,-1.149352 1.23269,-2.557764 1.05347,-2.504931 2.29222,-4.982542 3.48463,-6.972221 0.73561,-1.226634 1.65716,-1.568824 2.40468,-0.891885 1.33453,1.207712 4.21514,8.502882 4.57849,11.595033 0.1063,0.897202 0.27107,1.631859 0.36781,1.631859 0.0957,0 0.63037,-0.44009 1.18538,-0.979047 l 1.00989,-0.979057 0.31678,0.746249 c 0.80897,1.903155 2.19431,9.226745 2.19676,11.610935 l 10e-4,1.23301 1.85606,-1.83671 c 1.02051,-1.00989 1.93855,-1.75433 2.03921,-1.65367 0.96205,0.96099 1.53439,12.61923 0.82067,16.6967 -0.19241,1.10077 -0.30722,2.04432 -0.25513,2.09683 0.0532,0.0532 1.1991,-0.53364 2.54809,-1.30232 1.34899,-0.76857 2.55149,-1.39767 2.67225,-1.39767 0.49431,0 0.67184,1.63749 0.65696,6.05864 -0.0106,4.32293 -0.46349,7.7341 -1.5261,11.60471 l -0.20091,0.7303 1.02689,-0.53151 c 0.56447,-0.29234 1.77325,-0.78771 2.68533,-1.10162 l 1.65833,-0.57085 -0.01,0.83767 c -0.0319,3.12553 -1.54512,10.16748 -2.94482,13.73896 -0.42308,1.08068 -0.73136,2.00403 -0.68246,2.05197 0.0531,0.0531 1.0322,-0.25619 2.18697,-0.67503 2.3813,-0.86424 3.31465,-0.95673 3.31465,-0.32847 0,1.49324 -2.61177,8.34342 -4.35185,11.41421 -0.68246,1.20441 -1.24088,2.2262 -1.24088,2.27064 0,0.0425 1.04815,0.0106 2.33028,-0.0638 1.63951,-0.1063 2.33027,-0.0425 2.33027,0.20836 0,0.81534 -1.93982,4.54415 -3.70424,7.12019 -1.03858,1.51653 -1.88848,2.83107 -1.88848,2.92122 0,0.085 0.57616,0.24131 1.28053,0.33592 0.70373,0.0957 1.40459,0.29552 1.55649,0.44753 0.39864,0.39864 -3.01688,5.39522 -5.61377,8.21204 -1.20697,1.30923 -2.19452,2.51429 -2.19452,2.67789 0,0.1637 1.05665,0.36462 2.34685,0.44753 1.29074,0.085 2.49143,0.29553 2.66822,0.47199 0.76325,0.76326 -4.51407,6.48153 -8.83668,9.57368 -1.61847,1.15785 -2.60432,2.04889 -2.35515,2.12851 0.236,0.0744 1.16115,0.36781 2.05633,0.65057 0.89508,0.28277 1.7049,0.63889 1.7994,0.79196 0.25406,0.4114 -3.33877,2.94864 -5.87708,4.14987 -2.18528,1.03433 -6.96532,2.67066 -7.80086,2.67066 -0.23706,0 -0.50813,0.12331 -0.60061,0.2732 -0.0957,0.14989 0.77707,0.57723 1.93248,0.94929 2.92536,0.94078 3.16699,1.11565 2.39279,1.73349 -1.15138,0.91846 -4.88485,2.60751 -6.4861,2.93418 -0.87488,0.17859 -2.98893,0.43478 -4.69786,0.56872 l -3.10704,0.24344 2.25268,1.15806 c 1.23886,0.63676 2.25256,1.26353 2.25256,1.39247 0,0.12863 -0.80365,0.55278 -1.78653,0.94291 -2.17135,0.86106 -5.93055,1.27341 -9.78756,1.0743 l -2.87369,-0.14776 1.931,1.34793 c 1.06197,0.74093 1.83096,1.43988 1.70882,1.55234 -1.12926,1.03965 -10.03631,1.1957 -15.44661,0.27108 -1.99914,-0.3423 -3.95406,-0.62188 -4.34419,-0.62188 -0.4199,0 -1.24545,0.53577 -2.02157,1.31232 -1.22738,1.22727 -1.30349,1.40352 -1.17667,2.72306 0.085,0.83874 0.98543,3.29987 2.23151,6.06705 8.58718,19.07655 15.40888,34.63808 15.40888,35.15046 0,0.73988 -1.48251,2.19793 -3.55627,3.49728 -1.82374,1.14255 -2.78919,1.21728 -3.40766,0.26363 z m 0.88657,-10.07798 c -1.74911,-4.56041 -6.73113,-15.99971 -10.93542,-25.10937 -2.0507,-4.44316 -4.80969,-10.52519 -6.13115,-13.51572 -1.32156,-2.99052 -5.82999,-12.42824 -10.01866,-20.97258 -12.93998,-26.39575 -16.60543,-34.37795 -26.96565,-58.72332 -8.578676,-20.15873 -14.687714,-33.87933 -14.962402,-33.60464 -0.256191,0.2562 4.464845,12.81936 11.344582,30.18688 9.97285,25.1757 13.19012,32.25178 27.58975,60.6825 17.7298,35.00567 20.87595,41.413 25.91197,52.77119 2.81459,6.34832 5.16687,11.49564 5.22704,11.43845 0.0638,-0.0532 -0.41671,-1.47624 -1.05985,-3.15339 z M 83.455059,250.71473 c 3.606021,-0.607 7.624711,-1.70702 10.787128,-2.95162 3.038573,-1.1957 10.360533,-4.69436 10.187153,-4.86763 -0.16264,-0.16264 -4.00413,1.14967 -8.083411,2.76218 -6.368737,2.51748 -11.930845,3.94067 -18.626571,4.76579 -2.031244,0.25088 -3.767389,0.52939 -3.85796,0.61975 -0.376313,0.37632 6.886966,0.12757 9.593661,-0.32847 z m 12.799024,-1.70841 c 2.753575,-0.92058 10.480977,-4.42817 10.480977,-4.75771 0,-0.20729 -1.84606,0.45711 -4.19452,1.5077 -1.02583,0.45923 -3.610803,1.53417 -5.745586,2.3896 -2.134676,0.85574 -3.940663,1.61474 -4.013268,1.68735 -0.33273,0.33273 0.832354,0.0532 3.472397,-0.82704 z m -15.25463,-0.11693 c 2.448696,-0.42096 5.850402,-1.17869 7.559334,-1.68427 9.234355,-2.73178 8.782779,-3.49461 -0.68353,-1.1552 -6.807451,1.68225 -11.900549,2.56255 -16.504864,2.85276 -4.611331,0.29021 -3.863806,0.74093 1.240347,0.74731 2.789399,0.003 5.234375,-0.21792 8.389031,-0.76007 z m -4.849026,-6.83711 c 5.394362,-0.76645 11.442382,-2.60443 17.690358,-5.37427 3.872205,-1.71669 19.100165,-9.06841 20.000445,-9.65585 0.68778,-0.4486 0.69841,-0.49537 0.1552,-0.70904 -1.55809,-0.61231 -2.64748,-0.19879 -13.1914,5.01061 -11.334905,5.59995 -16.778485,7.91513 -21.139684,8.99071 -4.097886,1.01094 -8.946061,1.55596 -14.25421,1.60316 -2.907714,0.0213 -4.446667,0.13713 -3.883897,0.27957 1.645575,0.41884 11.33342,0.3221 14.623082,-0.14563 z m -0.330603,-2.15764 c 6.86039,-1.05453 10.348733,-2.4421 26.496096,-10.53593 l 8.16442,-4.09236 -1.26671,-0.61337 -1.26681,-0.61337 -4.1013,2.1013 c -2.25576,1.15573 -6.478229,3.35249 -9.383392,4.88166 -9.365427,4.92992 -15.790611,6.99943 -24.145201,7.77715 -3.991795,0.371 -14.76234,0.26788 -15.935715,-0.15414 -0.52195,-0.18709 -0.538958,-0.17009 -0.111619,0.10737 0.780266,0.506 4.469522,1.29605 7.412742,1.58753 3.375449,0.33379 10.531575,0.10843 14.137064,-0.44647 z m 16.815269,-0.4571 c 3.498442,-1.12118 25.426697,-10.63767 26.128187,-11.33916 0.10631,-0.1063 -0.43159,-0.19241 -1.19474,-0.19241 -1.40873,0 -2.55968,0.45498 -12.23168,4.83425 -4.51854,2.04602 -15.019391,7.2248 -14.721317,7.2603 0.106303,0.0106 1.014134,-0.24024 2.01955,-0.56234 z m -19.145544,-2.03337 c 5.714016,-0.82598 9.76651,-2.09003 16.456709,-5.13328 3.56318,-1.62091 11.461192,-5.83371 14.318742,-7.63757 3.01806,-1.90517 0.8685,-1.87828 -3.46613,0.0425 -10.834328,4.8031 -19.143313,7.41359 -28.560511,8.97317 -12.153656,2.01285 -24.290092,0.63782 -31.990278,-3.6241 -1.620488,-0.8972 -1.662584,-0.90464 -0.781329,-0.14351 1.196124,1.03221 5.962977,3.3999 8.452282,4.19771 3.994134,1.28032 7.82573,1.69097 14.044048,1.50515 10.618106,-0.31679 17.209548,-1.76815 29.313774,-6.45261 0.812157,-0.31466 1.475915,-0.51132 1.475915,-0.43691 0,0.25194 -4.498224,2.40065 -7.822541,3.73699 -3.800875,1.52779 -8.169515,2.65832 -13.305453,3.44316 -5.280511,0.80684 -16.680371,0.75475 -21.058578,-0.0957 -3.748787,-0.72818 -3.776425,-0.47943 -0.07441,0.62612 2.304762,0.68672 4.327395,1.05241 8.699756,1.56989 2.12107,0.25088 11.077868,-0.1063 14.29248,-0.57191 z m 42.847151,-5.648 c 4.05845,-1.6122 5.33185,-2.38768 2.03826,-1.2413 -2.26937,0.78983 -6.11064,2.3359 -6.33206,2.5484 -0.44329,0.42522 1.1621,-0.0638 4.2938,-1.3071 z m -49.99339,-4.18623 c 6.30655,-0.6899 11.474485,-1.99552 20.351236,-5.14274 3.666188,-1.29987 7.612273,-3.03931 7.612273,-3.35546 0,-0.0638 -0.611244,-0.35824 -1.357068,-0.64314 -1.296156,-0.49537 -1.418086,-0.49112 -2.718707,0.0957 -3.772492,1.70978 -14.451615,5.24702 -14.797314,4.90132 -0.06378,-0.0638 1.462628,-0.64526 3.39586,-1.28903 1.933338,-0.64313 5.046749,-1.84638 6.91875,-2.67321 1.872108,-0.82704 3.584866,-1.50323 3.80619,-1.50323 0.886569,0 0.315721,-0.5751 -1.195487,-1.20261 -1.047088,-0.43478 -1.720838,-0.56235 -1.95428,-0.36781 -0.555966,0.46135 -5.291353,2.43434 -8.720698,3.63355 -4.393834,1.53651 -15.525597,4.31443 -19.574478,4.88474 -1.879761,0.2647 -4.801082,0.57617 -6.491836,0.69098 -2.387041,0.16264 -2.943645,0.28276 -2.490687,0.53576 1.046025,0.58573 8.355334,0.63676 12.711005,0.085 7.212361,-0.90677 7.126042,-0.90252 4.815965,-0.20623 -1.110763,0.33485 -3.13818,0.84724 -4.50524,1.13744 -1.367061,0.29021 -2.59008,0.61869 -2.717857,0.72924 -0.29446,0.25619 3.081839,0.0957 6.912373,-0.31891 z m 10.360107,-0.12543 c 1.853079,-0.24663 5.068861,-0.87913 7.14624,-1.40618 3.765157,-0.95461 13.375082,-4.07663 14.758938,-4.79449 0.709043,-0.36781 0.689908,-0.39226 -0.723926,-0.93228 l -1.452315,-0.55491 -3.649499,1.41862 c -5.50109,2.13829 -11.755232,4.07152 -19.759658,6.10808 -1.98936,0.506 -2.068875,0.55597 -0.93228,0.58148 0.68353,0.0106 2.758996,-0.17327 4.612075,-0.4199 z m -18.259506,-3.42945 c 5.903979,-0.82173 14.176821,-2.90272 19.124284,-4.81129 2.385552,-0.92059 7.106694,-3.18506 7.106694,-3.40904 0,-0.10631 -0.594235,-0.40821 -1.320499,-0.67503 -1.294562,-0.47517 -1.351434,-0.46773 -2.90123,0.40289 -3.864869,2.17114 -14.327985,5.32133 -22.188157,6.68021 -4.229171,0.73136 -10.918944,0.72817 -14.69303,-0.006 -4.369066,-0.85043 -10.744501,-3.45985 -14.423871,-5.9044 -2.42988,-1.61443 -2.569244,-1.61847 -0.866371,-0.0213 4.262868,3.98786 10.984107,7.10446 17.010973,7.88802 3.264787,0.42415 9.573038,0.35718 13.150995,-0.14138 z m -3.0407,-2.3442 c 6.208645,-0.68035 12.750869,-2.21037 17.931029,-4.19208 2.747941,-1.05134 6.237134,-2.85924 5.99168,-3.10469 -0.06378,-0.0638 -3.476437,0.7707 -7.572729,1.86445 -4.096398,1.09408 -8.352569,2.19687 -9.45823,2.45061 -6.353217,1.45774 -14.859076,1.48464 -20.382702,0.0638 -6.063434,-1.55884 -12.387418,-4.45114 -16.801769,-7.68446 -0.889758,-0.65164 -1.723601,-1.18507 -1.852547,-1.18507 -0.128627,0 0.45923,0.71011 1.307211,1.57723 4.605378,4.71104 14.933914,9.4105 22.420749,10.2015 3.549574,0.37525 5.056636,0.37631 8.417308,0.008 z m 64.659209,-2.85393 c -0.85043,-1.68299 -4.04655,-7.06853 -4.19537,-7.06853 -0.19347,0 1.13266,3.19292 1.95449,4.70615 0.75263,1.3862 2.47953,3.68288 2.76878,3.68288 0.0744,0 -0.16158,-0.59424 -0.52833,-1.3205 z m -59.198089,-0.82704 c 3.218333,-0.58892 5.141041,-1.23344 2.527255,-0.84724 -13.312257,1.96683 -23.79642,-0.0744 -37.085609,-7.2081 -3.691063,-1.98235 -3.992752,-1.83406 -0.836607,0.41139 5.579436,3.96947 12.949125,7.00943 19.590743,8.08118 3.723167,0.60061 11.273465,0.39226 15.804324,-0.43691 z m 59.864499,-2.37747 c -0.99606,-2.48761 -3.10235,-5.91706 -5.87846,-9.57134 -1.59721,-2.10257 -1.90974,-3.03762 -0.62719,-1.87763 0.99712,0.90251 5.04834,5.96723 6.3091,7.88813 0.61443,0.93546 1.11693,1.59699 1.11693,1.469 0,-0.47836 -2.61517,-5.41381 -3.82055,-7.20991 -2.95172,-4.3982 -7.76481,-9.78724 -8.7411,-9.78724 -0.11162,0 0.63144,1.64281 1.65014,3.65077 1.01839,2.00796 2.30296,4.69946 2.8535,5.98105 1.16158,2.70425 1.52609,3.3173 3.25575,5.47685 0.70161,0.87594 2.03444,2.77622 2.9614,4.22216 0.92697,1.44604 1.72892,2.52141 1.78207,2.38959 0.0532,-0.13182 -0.33486,-1.31582 -0.86106,-2.63143 z m 49.54542,-2.97171 c 6.69031,-4.22407 11.06936,-7.11148 13.4057,-8.83933 3.31443,-2.45115 9.0024,-8.20428 11.03534,-11.16174 2.14701,-3.12341 4.29976,-6.69339 4.29753,-7.12668 -9.6e-4,-0.18178 -0.5868,0.64845 -1.30254,1.84468 -1.73093,2.89389 -4.19717,6.21055 -6.3361,8.52074 -1.98202,2.14084 -7.56571,6.60398 -11.12623,8.89333 -4.88655,3.1419 -13.91256,9.31696 -17.60287,12.04279 -1.48124,1.09407 4.26286,-2.04847 7.62917,-4.17379 z m -16.93337,-1.09599 c 2.2936,-1.75507 5.73219,-4.09693 8.69965,-5.92503 11.39518,-7.01973 20.4789,-13.81039 26.65353,-19.92506 5.97478,-5.91663 8.64724,-9.34863 11.60407,-14.90202 0.74838,-1.40459 1.84404,-4.43009 1.81439,-5.00774 -0.005,-0.0957 -0.59956,0.94504 -1.3205,2.31518 -4.11033,7.80978 -10.87494,15.51592 -19.79846,22.55416 -4.16444,3.28456 -9.98699,7.41061 -14.06914,9.96987 -6.68467,4.19079 -11.88769,8.23744 -16.82909,13.0887 -2.42222,2.3779 -2.53257,2.52661 -0.79408,1.06962 1.11076,-0.93122 2.92833,-2.38768 4.0392,-3.23768 z m 10.05066,3.11458 c 1.56393,-0.96204 4.45145,-2.8266 6.41668,-4.14349 1.96523,-1.31688 4.27222,-2.79057 5.12658,-3.27478 0.85468,-0.48474 3.02167,-1.86062 4.81596,-3.05856 8.13784,-5.43326 13.13463,-10.30589 16.61425,-16.20158 2.72881,-4.62355 2.61379,-4.87911 -0.21048,-0.46773 -4.55796,7.11849 -10.52881,12.21722 -23.24608,19.85065 -3.12681,1.87679 -13.11677,9.04493 -12.60566,9.04493 0.135,0 1.52492,-0.78665 3.08896,-1.74923 z m -54.96221,-0.18497 c -0.67609,-0.7218 -1.29818,-1.3863 -1.38365,-1.47591 -0.085,-0.085 -1.47358,-1.70085 -3.08471,-3.58061 -1.61124,-1.87977 -3.05261,-3.55766 -3.20324,-3.72849 -0.16158,-0.1839 -0.18497,-0.0531 -0.0531,0.31041 0.371,1.05772 4.06238,6.48014 4.99456,7.33503 0.79408,0.72818 3.46708,2.44179 3.82043,2.44923 0.0744,0.002 -0.41139,-0.58786 -1.08737,-1.30997 z m 53.5455,-0.83341 c 3.20101,-2.17104 5.05058,-3.72657 4.4523,-3.74411 -0.49537,-0.0106 -6.11456,3.93683 -6.99805,4.92078 -0.9546,1.06346 -0.33379,0.77601 2.54575,-1.17667 z m -51.55923,0.085 c -1.16891,-2.02678 -3.3663,-4.80353 -5.99359,-7.57379 -4.13765,-4.36258 -4.511517,-4.92195 -1.57085,-2.34962 1.538,1.34526 4.28382,3.99721 6.10192,5.89324 1.818,1.89602 3.39257,3.36407 3.49908,3.26234 0.10631,-0.1063 -0.67715,-1.49994 -1.7405,-3.10703 -2.24662,-3.39405 -7.06216,-8.49055 -10.734517,-11.36096 -1.409794,-1.10194 -2.563291,-2.0711 -2.563291,-2.15359 0,-0.236 3.674908,2.30614 5.903448,4.083 3.12575,2.49249 6.58964,6.05227 8.02134,8.2434 0.71542,1.09407 1.29977,1.89793 1.29977,1.78642 0,-0.50706 -2.28946,-5.50151 -2.98543,-6.51288 -0.42734,-0.62081 -1.62803,-1.80897 -2.66885,-2.641 -4.49706,-3.59486 -5.90377,-4.68458 -9.660848,-7.48418 -2.185915,-1.62878 -3.914088,-3.02178 -3.840313,-3.09555 0.351863,-0.35187 10.835921,6.96053 13.855581,9.66318 0.93759,0.83873 1.00456,0.86106 0.54533,0.18072 -0.28808,-0.42734 -0.75475,-1.19613 -1.03645,-1.70883 -1.22983,-2.23694 -3.03369,-4.59071 -3.94312,-5.14529 -1.7101,-1.04284 -1.58636,-0.66652 0.51345,1.55883 1.1215,1.1889 2.20845,2.48218 2.41543,2.87402 0.20729,0.39226 -0.72925,-0.42203 -2.0792,-1.80918 -1.35058,-1.38694 -3.0846,-2.91717 -3.853597,-3.40054 -1.225996,-0.77069 -9.020367,-3.95884 -9.211394,-3.76781 -0.04252,0.0425 1.35239,2.24226 3.093745,4.89431 1.741248,2.65216 3.77972,5.96627 4.529903,7.3648 1.162106,2.16625 2.189213,3.37545 6.938953,8.16877 3.06621,3.09438 5.63897,5.56221 5.71721,5.48398 0.0744,-0.0744 -0.17009,-0.6846 -0.55278,-1.34655 z m 45.2715,-6.83722 c 1.37588,-1.01626 3.68288,-2.53023 5.12658,-3.36428 10.40975,-6.01294 19.80441,-12.95731 27.12967,-20.0538 6.28476,-6.08842 10.72717,-12.08743 13.63265,-18.40929 0.91527,-1.99149 0.35187,-1.28808 -1.34931,1.6848 -3.0913,5.40191 -8.49863,12.12985 -13.11176,16.31416 -4.71615,4.27764 -7.85486,6.43305 -13.3281,9.15282 -2.01732,1.00244 -3.66789,1.89103 -3.66789,1.97479 0,0.14883 3.79439,-1.20813 4.36811,-1.56276 0.16052,-0.0957 0.29233,-0.1063 0.29233,-0.009 0,0.43797 -7.68434,3.95459 -10.79393,4.93917 -5.18154,1.64079 -8.74323,3.5973 -11.39847,6.26126 -2.13734,2.14446 -5.00009,6.00699 -4.68532,6.32175 0.085,0.085 1.10024,-0.74625 2.25395,-1.84819 2.62664,-2.50992 4.26797,-3.82256 7.22426,-5.77758 2.35781,-1.55915 8.38903,-4.906 8.38903,-4.65523 0,0.0744 -1.29328,0.94928 -2.87401,1.94354 -4.5534,2.86338 -8.56061,6.06726 -11.91012,9.52233 -4.70636,4.85477 -5.24532,5.92237 -1.20856,2.39384 1.87498,-1.63898 4.5349,-3.8115 5.91078,-4.82787 z m -58.004832,6.15603 c -0.403953,-0.49963 -2.691919,-3.1014 -5.084381,-5.78237 -4.913126,-5.50556 -6.852949,-7.73888 -8.82041,-10.15505 -1.112252,-1.36589 -0.945037,-1.24502 0.90783,0.65589 7.66298,7.8623 15.138976,15.31788 15.626163,15.58364 0.51557,0.28064 0.53258,0.24344 0.18603,-0.41352 -0.4486,-0.85042 -5.615261,-7.31877 -8.968599,-11.2286 -4.292421,-5.00466 -4.512044,-5.36396 -1.45965,-2.38832 1.665241,1.62346 4.095866,4.27998 5.401377,5.90345 1.305511,1.62336 2.871039,3.57041 3.478988,4.32665 0.608057,0.75581 1.489204,1.9446 1.958424,2.641 2.07855,3.0846 -0.20304,-1.66461 -3.222583,-6.70721 -3.334628,-5.56912 -5.464415,-8.50958 -10.122626,-13.97538 -3.169114,-3.71859 -5.582305,-5.5435 -11.046189,-8.35342 -5.689565,-2.92599 -6.129767,-3.18803 -6.132106,-3.64918 -9.57e-4,-0.21685 0.348675,-0.5549 0.776014,-0.74943 0.757943,-0.34549 0.735619,-0.36994 -0.842985,-0.92591 -1.704255,-0.60061 -2.738267,-0.72817 -2.723172,-0.33804 0.0049,0.12863 1.06197,1.41607 2.349516,2.862 1.287333,1.44594 3.045696,3.58009 3.90739,4.74241 1.256718,1.69522 2.301042,2.61516 5.277534,4.64864 3.522786,2.40671 5.32654,3.90665 3.037086,2.52555 -0.585731,-0.35292 -1.763891,-1.0237 -2.618357,-1.49005 -0.854679,-0.46561 -1.728279,-0.98968 -1.941949,-1.16391 -0.765383,-0.62294 -0.351864,0.18709 2.152855,4.21588 2.420313,3.89389 4.327501,7.203 8.356077,14.49828 1.778986,3.22152 1.828736,3.27669 3.847436,4.27222 1.124795,0.55491 2.125428,1.00882 2.223546,1.00882 0.09567,0 -0.366746,-0.66439 -1.034331,-1.47591 -2.530869,-3.0812 -5.206842,-6.86964 -4.999232,-7.07725 0.06378,-0.0638 1.225358,1.15477 2.588167,2.70085 1.362914,1.54618 3.023903,3.25075 3.691169,3.78801 1.492286,1.20144 3.718171,2.64366 3.871035,2.50801 0.06378,-0.0532 -0.217922,-0.50919 -0.621874,-1.00775 z M 81.37768,188.9659 c -3.900481,-2.63611 -7.087348,-5.15677 -6.836685,-5.40744 0.07441,-0.0744 1.057718,0.53258 2.17486,1.35984 1.116822,0.82703 3.291363,2.3983 4.832229,3.49121 2.381832,1.68937 4.171873,3.19101 3.718702,3.11968 -0.07441,-0.0106 -1.819275,-1.16434 -3.889106,-2.56329 z m -26.21971,23.35207 c -2.918557,-1.33953 -5.880593,-2.87444 -5.766742,-2.98829 0.05315,-0.0531 0.988621,0.30934 2.077911,0.8079 2.880394,1.31806 7.505863,2.85265 8.541577,2.83384 0.679278,-0.0106 -0.13288,-0.53683 -3.376937,-2.17709 -2.349729,-1.18847 -4.272224,-2.22631 -4.272224,-2.30636 0,-0.19135 0.954604,0.17965 3.588055,1.39257 3.345047,1.54108 7.183978,2.76867 9.353097,2.99085 1.085038,0.11162 1.972776,0.13181 1.972776,0.0425 0,-0.085 -0.664395,-0.3997 -1.475915,-0.69735 -1.821932,-0.66865 -9.434843,-4.27116 -9.30324,-4.40266 0.05315,-0.0532 2.324747,0.742 5.048982,1.76602 5.539359,2.08195 7.965732,2.78918 9.503409,2.76994 l 1.042836,-0.0106 -1.087483,-0.58467 c -0.598488,-0.32209 -3.420734,-1.60603 -6.272639,-2.85413 -2.851905,-1.24822 -5.141147,-2.31348 -5.087251,-2.36738 0.05315,-0.0531 3.365988,1.08132 7.360122,2.52269 3.99424,1.44136 7.75153,2.71392 8.349699,2.82777 l 1.087483,0.20729 -0.777077,-0.63038 c -1.110764,-0.90145 -8.006978,-4.40903 -11.585572,-5.89218 -3.650987,-1.51322 -6.808514,-2.20962 -10.073089,-2.22184 -3.702756,-0.0106 -10.058206,-0.53577 -13.39985,-1.0995 -8.718997,-1.47198 -17.404721,-5.85125 -24.830007,-12.51934 -1.75156,-1.57286 -3.184741,-2.73741 -3.184741,-2.58774 0,0.14989 0.704791,1.27553 1.565954,2.50196 2.422971,3.45018 8.550081,8.03599 14.366573,10.75268 2.828306,1.32093 8.54753,3.2717 9.592385,3.2717 0.295523,0 0.611244,0.11906 0.700539,0.26363 0.08504,0.14564 -0.846175,0.085 -2.078868,-0.14351 -6.746433,-1.22812 -10.674446,-3.14892 -18.49433,-9.04407 -5.698707,-4.29614 -6.392549,-3.71658 -1.080254,0.90251 8.124655,7.06439 12.932541,9.40157 22.237801,10.80999 4.155609,0.62931 3.041125,0.81215 -1.972352,0.32422 -6.859646,-0.66758 -12.03768,-3.12904 -19.788785,-9.40646 -1.238965,-1.0035 -2.252567,-1.7304 -2.252567,-1.61549 0,0.57085 3.350042,4.30688 5.201208,5.80044 4.049518,3.26723 7.847735,5.33717 11.557189,6.29836 2.005306,0.51983 9.161113,1.36217 12.292489,1.44732 l 1.864241,0.0532 -2.01955,0.21685 c -1.891349,0.20304 -4.036018,0.16052 -7.534566,-0.15095 -3.263405,-0.29127 -0.682467,0.8685 5.171443,2.32241 2.750386,0.68353 9.840285,1.47337 13.393154,1.4925 l 1.864241,0.01 -2.01955,-0.92696 z m 125.24241,-4.18739 c 2.80173,-1.67959 4.34377,-2.90144 7.35502,-5.82808 2.09556,-2.03656 3.7439,-3.76909 3.66279,-3.8502 -0.085,-0.085 -1.65578,1.25108 -3.4994,2.96012 -2.97809,2.7607 -9.78894,7.67808 -12.75087,9.20608 -0.55596,0.28596 -1.00988,0.58254 -1.00988,0.65696 0,0.31572 2.93993,-1.1653 6.24234,-3.1452 z m -43.08313,-2.6696 c -0.12331,-1.57637 -0.33698,-3.21918 -0.47518,-3.65077 -0.24449,-0.76432 -0.1552,1.19666 0.22005,4.8857 0.28383,2.78972 0.49112,1.78706 0.25407,-1.23493 z m -17.68398,0.0319 c -1.63792,-3.26361 -4.05526,-6.25297 -6.83945,-8.45791 l -1.2429,-0.98437 0.97799,1.24279 c 0.5379,0.68353 2.04666,2.57105 3.3527,4.19452 1.30605,1.62346 2.89326,3.73858 3.52715,4.70041 0.63357,0.96205 1.1991,1.70755 1.25597,1.65727 0.0531,-0.0532 -0.40714,-1.10906 -1.03114,-2.35292 z m -37.956134,0.11162 c -0.646324,-0.81215 -2.430731,-2.92844 -3.965219,-4.70392 -3.427113,-3.96511 -2.417444,-3.58933 1.773989,0.66015 2.72179,2.75963 2.991907,2.96054 2.547878,1.89528 -1.375246,-3.29891 -6.659796,-11.63097 -9.502559,-14.98228 -1.750922,-2.06431 -10.168549,-9.63767 -13.60087,-12.2369 -1.086632,-0.82278 -2.966713,-1.9952 -4.178039,-2.60517 -1.21122,-0.61018 -2.734014,-1.44477 -3.383953,-1.85499 -0.649513,-0.41034 -1.181774,-0.68779 -1.181774,-0.6155 0,0.0744 1.086314,1.57637 2.414042,3.34398 3.41021,4.54011 6.868044,10.37404 13.767341,23.22749 l 3.237786,6.03186 1.708826,0.76326 c 2.146582,0.95885 5.036119,1.97033 5.189408,1.81704 0.06378,-0.0638 -0.584668,-0.56553 -1.440516,-1.11512 -1.575309,-1.01095 -5.155285,-4.61367 -4.86901,-4.89995 0.08504,-0.085 0.966297,0.53471 1.958319,1.37939 1.88986,1.60901 5.811815,4.43955 6.151347,4.43955 0.478365,0 -3.050905,-4.0543 -5.746756,-6.60144 -1.623358,-1.53385 -3.082902,-3.01784 -3.243314,-3.29763 -0.384818,-0.67184 5.255316,4.11617 8.214694,6.97265 2.26256,2.18389 4.447943,3.85859 5.035375,3.85859 0.158392,0 -0.240246,-0.66439 -0.88657,-1.47591 z M 61.02166,182.61236 c -0.385881,-0.49324 -0.375251,-0.50387 0.116934,-0.11693 0.298712,0.23493 0.544273,0.47943 0.544273,0.54427 0,0.25619 -0.255128,0.0957 -0.661207,-0.42627 z m 107.39558,20.17712 c -0.15308,-0.15308 -4.20175,2.07046 -4.20175,2.30837 0,0.085 0.97481,-0.36462 2.16615,-1.00775 1.19134,-0.64314 2.10735,-1.22866 2.0356,-1.30041 z m -33.73036,-4.0981 c 0.0213,-2.64887 0.16052,-6.98317 0.31891,-9.63193 0.48049,-8.07959 0.63995,-13.25539 0.32954,-10.71931 -0.67184,5.48015 -1.47804,26.85955 -0.97267,25.78854 0.16158,-0.34229 0.30721,-2.78854 0.32528,-5.4373 z m -1.56978,-2.07473 c 0.19135,-3.38746 0.48262,-8.3262 0.64739,-10.97496 0.16477,-2.64876 0.38694,-6.28401 0.49537,-8.07831 0.10843,-1.79429 0.085,-3.15795 -0.0425,-3.03039 -0.46774,0.45073 -1.40405,3.5281 -1.85627,6.10043 -0.32954,1.87509 -0.45817,5.01539 -0.45817,11.21755 0,14.00684 0.5666,16.22763 1.21494,4.76568 z m 11.15728,-4.43231 0.57616,-2.31252 0.18922,1.38034 c 0.20835,1.51972 1.09407,3.87476 1.35813,3.6107 0.0957,-0.0957 0.29552,-4.96564 0.45179,-10.8306 0.49325,-18.50241 1.71871,-27.79162 4.95214,-37.53942 0.59211,-1.78388 0.67928,-2.81757 0.74837,-8.85507 0.0851,-7.00793 0.48581,-10.7193 1.7336,-15.88851 1.04283,-4.32039 0.70054,-5.97214 -0.82598,-3.9883 -0.49112,0.63889 -1.25098,1.597 -1.68767,2.12991 -0.43691,0.53258 -1.52194,1.98245 -2.41149,3.22141 -1.59763,2.22514 -1.60741,2.25257 -0.80365,2.25257 0.65164,0 0.76963,0.10843 0.59317,0.54427 -0.83873,2.06834 -3.73199,15.86981 -3.39756,16.20424 0.0744,0.0744 0.64526,-0.45498 1.2648,-1.17944 0.61974,-0.72392 1.243,-1.20123 1.38449,-1.05984 0.42202,0.42202 -0.52195,4.18548 -1.90804,7.60951 -0.71329,1.76229 -1.36685,3.37895 -1.45168,3.59252 -0.26469,0.66546 0.88551,0.43053 1.98001,-0.40396 0.57191,-0.43584 1.03965,-0.73243 1.03965,-0.65908 0,0.0744 -0.92272,2.14244 -2.04996,4.59868 -2.98032,6.4928 -3.94587,9.1237 -5.51629,15.0298 -1.388,5.22024 -2.52821,10.67105 -2.28329,10.91597 0.0744,0.0744 0.45604,-0.56872 0.86,-1.41872 0.40289,-0.84937 0.77176,-1.50685 0.81853,-1.46008 0.0425,0.0425 -0.47198,1.66088 -1.15381,3.5871 -1.29924,3.67342 -1.87222,7.12742 -1.83416,11.05724 0.0213,2.16296 0.0213,2.16891 0.4401,1.08749 0.23067,-0.59849 0.42946,-1.40044 0.44222,-1.78292 0.0532,-1.43786 4.23693,-13.37115 4.57423,-13.03385 0.0744,0.0744 -0.56979,2.06409 -1.43573,4.41733 -1.64282,4.46463 -2.30838,7.50533 -2.61613,11.95295 l -0.18284,2.641 0.74519,-2.641 c 0.84086,-2.97978 3.01486,-8.76598 3.21695,-8.56379 0.0744,0.0744 -0.29765,1.51875 -0.82492,3.21312 -1.26894,4.0846 -1.90665,7.20864 -1.87327,9.17706 l 0.0319,1.61092 1.07685,-3.41776 c 1.15403,-3.663 2.55713,-7.36235 2.58189,-6.80755 0.008,0.18603 -0.26575,1.43796 -0.60911,2.78153 -0.6442,2.51917 -1.88242,9.3548 -1.83289,10.11933 0.0425,0.60168 2.94259,-8.07554 3.64451,-10.89141 z m 0.44541,-5.45517 c 0.003,-0.68353 0.0638,-0.92696 0.14138,-0.54002 0.0744,0.38695 0.0744,0.9461 -0.006,1.24279 -0.0744,0.29765 -0.1382,-0.0213 -0.13501,-0.70266 z m 0.002,-4.50524 c -0.0106,-1.45253 0.085,-3.41 0.21686,-4.34982 l 0.23599,-1.70894 0.003,2.01955 c 0.002,1.11087 -0.0957,3.06824 -0.21686,4.34994 l -0.22005,2.33027 z m -2.86275,-9.78724 c -0.0213,-0.90995 2.38747,-7.17802 2.65695,-6.90854 0.0531,0.0531 -0.52195,1.69809 -1.27702,3.65715 -0.75476,1.95917 -1.37557,3.42233 -1.37993,3.25139 z m 2.79132,-0.93228 c 0,-0.17115 0.135,-0.52088 0.30083,-0.77707 0.16584,-0.2562 0.30084,-0.32636 0.30084,-0.15521 0,0.17115 -0.135,0.52089 -0.30084,0.77708 -0.16583,0.25619 -0.30083,0.32635 -0.30083,0.1552 z m 1e-4,-8.78076 c -0.0106,-0.50175 2.21653,-6.34078 2.36397,-6.19333 0.0638,0.0638 -0.44434,1.56744 -1.12181,3.34781 -0.67822,1.78047 -1.23684,3.061 -1.24216,2.84552 z m 6.57082,-24.30933 c 0.004,-1.96523 0.10843,-3.9227 0.23281,-4.34993 0.12437,-0.42734 0.16902,1.04071 0.0957,3.26245 -0.15946,5.13955 -0.34123,5.73464 -0.33273,1.08748 z m -2.51173,-2.35324 c -0.0425,-0.85361 0.90464,-6.31303 1.22929,-7.11466 0.15414,-0.37951 0.25513,-0.44435 0.25513,-0.16371 -6.4e-4,0.82279 -1.4537,7.94766 -1.48432,7.27869 z m -17.75521,59.20191 c 0.17966,-3.66842 0.40077,-7.57858 0.49219,-8.68934 l 0.16583,-2.01966 -0.66758,1.2429 c -0.91102,1.69448 -1.74316,2.54947 -2.72009,2.79461 -0.45179,0.11374 -0.9259,0.36993 -1.05347,0.56979 -0.3593,0.56447 -0.25619,3.89187 0.18391,5.95638 l 0.39757,1.86424 0.23599,-3.78131 c 0.1956,-3.14307 0.33592,-3.87231 0.8313,-4.32038 0.5836,-0.52833 0.5953,-0.47092 0.59636,2.84925 8.5e-4,4.16368 0.69097,10.72292 1.08621,10.32768 0.0638,-0.0638 0.27107,-3.12617 0.45072,-6.79448 z m 13.99728,-0.085 c 0,-1.25343 -0.11587,-2.07877 -0.26682,-1.91112 -0.32848,0.36249 -1.28797,5.22874 -1.2834,6.50927 0.003,0.84298 0.0744,0.77176 0.77708,-0.73031 0.59529,-1.27989 0.77388,-2.16944 0.77388,-3.86827 z m -90.725945,4.9026 c 0,-0.29978 -4.176232,-2.85807 -6.835515,-4.18676 -3.371516,-1.68459 -5.3478,-2.83553 -5.17155,-3.01178 0.07441,-0.0744 0.847238,0.22004 1.712547,0.65908 3.130313,1.58626 2.498234,0.54108 -1.113527,-1.84075 -2.66832,-1.75996 -4.399575,-2.5213 -9.590472,-4.2179 -10.16823,-3.32326 -15.538567,-5.90706 -20.403006,-9.81648 -1.153391,-0.92696 -2.097258,-1.58976 -2.097258,-1.47272 0,0.39757 2.569989,4.30964 4.711575,7.17111 2.293494,3.06441 6.1067,6.7998 9.114871,8.92874 1.833413,1.29753 3.026349,1.98681 5.697751,3.292 l 1.347819,0.65802 -0.218984,-0.68779 -0.218985,-0.68884 0.952477,0.67821 c 1.738059,1.23769 7.421991,3.45433 8.857404,3.45433 0.144573,0 -1.201333,-0.96524 -2.992013,-2.14573 -2.908033,-1.91655 -4.032615,-2.82555 -3.49589,-2.82555 0.09567,0 0.747312,0.35825 1.440622,0.79622 2.687879,1.69681 8.394135,4.4422 9.907681,4.76685 3.130845,0.67184 3.465807,0.42946 1.092054,-0.78771 -2.189423,-1.12267 -7.612274,-4.44443 -7.612274,-4.66289 0,-0.0638 1.642812,0.70586 3.650775,1.71266 4.642265,2.32708 7.28454,3.45517 9.243497,3.9464 1.86371,0.46773 2.019551,0.48899 2.019551,0.28064 z m -27.881231,-8.56794 c -0.89401,-0.52195 -2.642275,-1.92696 -3.883791,-3.1233 l -2.257244,-2.17496 3.107139,2.47282 c 1.708826,1.36005 3.561373,2.70234 4.116808,2.98277 0.963108,0.4858 1.28053,0.81215 0.777077,0.79833 -0.128627,-0.004 -0.965234,-0.43371 -1.85967,-0.95566 z m 152.784856,4.99987 c 1.79004,-1.21526 2.33835,-1.65876 6.18441,-5.00168 7.31377,-6.35704 12.23934,-12.41112 14.78998,-18.17861 1.10927,-2.50833 0.94291,-2.48781 -0.40502,0.0532 -4.07694,7.67829 -13.62883,17.32043 -24.1536,24.38173 -1.78844,1.19995 -3.25182,2.25001 -3.25182,2.33357 0,0.27107 5.07928,-2.39225 6.83563,-3.58476 z m -8.85517,-8.81148 c 16.41557,-10.49788 24.90229,-18.65432 29.31941,-28.17856 1.77877,-3.83532 1.85499,-4.61314 0.13394,-1.36664 -2.13106,4.01986 -4.73804,7.5335 -8.48088,11.43037 -5.7931,6.03154 -13.17236,11.37764 -29.02505,21.02786 -7.76716,4.72815 -10.74514,6.86081 -10.74514,7.69465 0,0.3423 14.2422,-7.69444 18.79761,-10.60768 z m -111.721683,9.54812 c -0.414583,-0.44966 -1.522157,-1.53321 -2.462091,-2.40713 -4.054621,-3.77016 -7.917576,-7.60579 -9.112107,-9.04758 -0.842985,-1.01839 -0.139257,-0.46667 2.042725,1.60071 3.733797,3.53714 11.657539,10.05066 12.226687,10.05066 0.277451,0 -3.65896,-4.42785 -7.313455,-8.22639 -1.804711,-1.87572 -2.861685,-3.05898 -2.34909,-2.62962 2.401179,2.01147 4.577101,4.12276 7.265618,7.04993 1.608794,1.75156 3.04644,3.18474 3.194627,3.18474 0.799401,0 -3.286048,-6.52639 -5.901428,-9.42751 l -1.724878,-1.91325 2.280738,2.17486 c 2.607939,2.48697 2.715518,2.75751 -1.79238,-4.50513 -6.266793,-10.09648 -11.233921,-15.89724 -20.095258,-23.46773 -0.951414,-0.81216 -1.657906,-1.54842 -1.570844,-1.63537 0.25938,-0.25938 3.199942,1.82863 6.954469,4.93906 1.93844,1.60593 3.651199,2.9664 3.806083,3.02337 0.609118,0.2243 0.21367,-0.65164 -1.306042,-2.89123 -2.225035,-3.27925 -4.442415,-5.41977 -7.014955,-6.77163 -2.660985,-1.39831 -3.582315,-1.47496 -4.098949,-0.34123 -0.355053,0.78026 -0.453915,0.80896 -2.069407,0.62081 -5.593148,-0.65164 -5.186857,-0.64952 -5.066415,-0.0213 0.06378,0.31784 1.78834,1.9699 3.837974,3.67139 3.699674,3.07111 11.077442,10.31546 12.361267,12.13772 0.368873,0.52301 -0.794085,-0.40289 -2.584233,-2.05772 -5.294968,-4.89505 -6.198014,-5.38915 -4.326119,-2.36684 3.394689,5.48079 4.658317,7.68105 7.925868,13.80029 4.173574,7.81649 4.867628,8.82243 7.429431,10.76917 1.723815,1.30987 9.264546,5.48812 9.928304,5.50119 0.158392,0.003 -0.05315,-0.36249 -0.465609,-0.81215 z M 35.75464,164.65019 c -3.580082,-3.4943 -6.39425,-6.35322 -6.253611,-6.35322 0.59211,0 4.502158,3.07993 6.70051,5.27828 1.897089,1.89709 6.539142,7.51256 6.154111,7.44442 -0.05315,-0.009 -3.020927,-2.87519 -6.60101,-6.36948 z m 122.97369,26.99955 c 13.23444,-7.54987 19.28491,-11.55645 26.46006,-17.52166 7.53478,-6.26413 14.28876,-15.2306 16.12175,-21.403 0.80578,-2.71435 0.56022,-2.82958 -0.70798,-0.33166 -3.85105,7.58803 -10.57006,15.77243 -17.12291,20.85734 -2.87051,2.22748 -10.87983,7.52947 -18.02096,11.92947 -7.63524,4.70445 -11.34374,7.43655 -12.17907,8.97253 -0.4486,0.82491 -0.12012,0.67396 5.44879,-2.50313 z m 26.14944,1.6342 c 0.3423,-0.26363 0.48156,-0.48262 0.31041,-0.48687 -0.17115,-0.005 -0.7303,0.34761 -1.24279,0.78346 -0.95461,0.81109 -0.18816,0.56766 0.93228,-0.29553 z m -15.95814,-3.31539 c 3.69882,-1.85775 10.9098,-6.68456 14.61458,-9.78245 5.30209,-4.43359 4.69796,-4.62377 -0.8313,-0.26151 -1.86828,1.4739 -11.39061,7.79916 -14.83622,9.85496 -4.3629,2.60315 -3.91377,2.68383 1.05347,0.18922 z m 18.32807,1.34091 c 0.38588,-0.49324 0.37525,-0.50388 -0.11693,-0.11693 -0.29872,0.23493 -0.54321,0.47943 -0.54321,0.54427 0,0.25619 0.25512,0.0957 0.6612,-0.42627 z m -30.95489,-1.1586 c 1.38631,-1.00882 7.72251,-4.82755 10.564,-6.36629 2.9007,-1.57095 9.60684,-6.00667 13.82645,-9.14538 3.55308,-2.64302 11.01259,-10.00814 13.40474,-13.23519 3.4488,-4.65257 7.1018,-11.1106 7.1018,-12.55516 0,-0.36037 -0.53151,0.2732 -1.2969,1.5448 -5.82638,9.68264 -12.19607,16.83695 -20.55215,23.08355 -3.93513,2.94173 -6.9871,4.79492 -13.82995,8.39732 -7.19567,3.78823 -8.76322,4.91823 -9.83508,7.08969 -0.48899,0.99075 -0.95673,1.92792 -1.03858,2.08248 -0.17753,0.33486 0.37738,0.0319 1.65567,-0.89614 z m 32.6433,-0.40182 c -0.1063,-0.10631 -0.43052,0.0638 -0.72605,0.37206 -0.51238,0.53683 -0.50387,0.54533 0.18922,0.18922 0.39864,-0.20517 0.63995,-0.45711 0.53577,-0.56128 z m 2.15254,-2.50812 c -0.085,-0.085 -0.18709,-0.0957 -0.22961,-0.0213 -0.0425,0.0744 -0.42628,0.54852 -0.85362,1.06197 l -0.77601,0.93228 1.00562,-0.90996 c 0.55278,-0.50069 0.93654,-0.97799 0.85362,-1.06197 z M 40.533293,186.04756 c -1.067179,-2.80684 -6.172502,-12.14409 -8.802552,-16.09932 -3.457621,-5.19961 -5.850934,-7.80564 -9.055128,-9.85995 -3.819371,-2.4487 -7.909072,-3.98595 -7.909072,-2.97299 0,0.24238 -0.181779,0.69098 -0.405016,0.995 -0.359305,0.49112 -0.562344,0.51238 -1.786533,0.18603 -0.760068,-0.20197 -2.057181,-0.70372 -2.8829447,-1.11586 -0.8259766,-0.4114 -1.5856199,-0.74838 -1.6886278,-0.74838 -0.1700853,0 8.1386865,8.50161 16.3949455,16.77562 3.523423,3.53097 8.881109,8.28039 12.117513,10.74174 4.367365,3.32144 4.5113,3.3966 4.017415,2.09768 z M 26.465645,172.55543 c -1.999353,-1.89847 -3.786843,-3.75101 -3.972342,-4.11691 -0.184968,-0.36568 1.495475,1.15041 3.735604,3.36939 2.24013,2.21908 4.072905,4.07173 4.072905,4.11691 0,0.23812 -0.497499,-0.19878 -3.836167,-3.36939 z m -1.614641,-4.64896 c -1.018386,-0.86637 -2.689686,-2.06898 -3.714982,-2.67172 -2.239066,-1.31646 -6.72868,-4.50747 -6.567843,-4.6682 0.112682,-0.11268 0.535769,0.14776 6.009964,3.69606 2.388741,1.5483 6.761634,5.16559 6.292517,5.20524 -0.09567,0.008 -1.001377,-0.69522 -2.019656,-1.56138 z m -3.093532,-5.20525 c -0.512382,-0.3104 -1.910909,-1.09471 -3.10714,-1.74295 -2.120007,-1.14882 -2.978618,-1.72944 -2.557338,-1.72944 0.547462,0 6.751854,3.59432 6.751854,3.91174 0,0.19986 -0.09567,0.16159 -1.087376,-0.43903 z m 86.531428,23.55522 c -1.01945,-0.34867 -14.317362,-2.2498 -14.494569,-2.0727 -0.233867,0.23387 4.582204,1.40395 7.192909,1.74773 3.41128,0.4486 4.39044,0.53577 6.36949,0.56554 1.3223,0.0213 1.53321,-0.0319 0.93228,-0.24025 z m -76.755351,-2.28595 c -0.249813,-0.23386 -1.643449,-1.45529 -3.095978,-2.71392 -5.568167,-4.82468 -12.980165,-12.45545 -20.3400731,-20.94026 -1.3341065,-1.538 -2.5334203,-2.83862 -2.6652364,-2.89018 -0.547462,-0.21473 1.3937426,6.21216 2.680863,8.87707 1.1697615,2.42191 1.8956005,3.40724 4.5659385,6.19749 3.536392,3.69531 2.73933,3.38023 -1.304767,-0.51557 -2.2623458,-2.17954 -2.7143474,-2.48665 -3.3488717,-2.27521 l -0.7334928,0.24449 0.9057041,1.42798 c 0.4985625,0.78558 1.8883714,2.27372 3.0895984,3.30762 3.804383,3.27436 7.731864,5.29327 15.907652,8.17717 4.616539,1.62857 5.005822,1.72754 4.338769,1.10364 z M 12.004994,168.93846 c -2.8488216,-2.83829 -4.4005308,-4.87613 -5.2075855,-6.83902 -0.5559663,-1.35271 -0.417772,-1.22727 1.6268657,1.47932 0.8397961,1.11076 2.6812878,3.38278 4.0935268,5.04898 1.412133,1.66609 2.488454,3.02932 2.391718,3.02932 -0.09567,0 -1.403735,-1.22333 -2.904525,-2.7186 z m 118.447716,14.29238 c 0.48156,-0.95673 0.9174,-2.5633 0.69523,-2.5633 -0.13926,0 -1.73115,3.02285 -1.73115,3.28797 0,0.46135 0.67715,-0.0106 1.03539,-0.72499 z m -63.217834,-1.79695 c -1.525665,-2.12448 -7.052799,-7.36884 -8.814245,-8.36331 -4.098949,-2.31412 -6.96191,-4.59539 -8.913639,-7.10234 -1.004566,-1.28988 -0.994999,-1.28584 0.998188,0.43053 2.093538,1.80269 5.024426,3.8687 6.73474,4.74761 1.972883,1.01414 1.994356,0.49112 0.04252,-1.11629 -2.492812,-2.05633 -9.354053,-8.73505 -11.844952,-11.52976 l -1.8956,-2.12692 1.729555,0.2158 c 2.238428,0.27958 2.626223,-0.25513 0.642072,-0.88551 -2.343032,-0.74412 -4.824789,-1.17561 -5.11202,-0.88869 -0.144573,0.14457 0.909956,1.79153 2.343563,3.65906 1.433925,1.86743 3.549042,5.04101 4.7002,7.05227 2.332507,4.07535 2.944176,4.67533 7.672016,7.52702 1.65206,0.99606 4.430828,3.01231 6.175053,4.47973 3.652368,3.07259 6.313565,5.25234 6.453567,5.28571 0.05315,0.0106 -0.358242,-0.61018 -0.914209,-1.38534 z m 60.369974,-7.75717 c 4.79662,-8.75503 7.18408,-13.50328 8.4864,-16.87767 1.07877,-2.79493 3.05622,-9.32971 3.43605,-11.35436 0.12012,-0.63676 0.27745,-1.09843 0.3508,-1.02476 0.26044,0.26044 -0.86425,6.00007 -1.80642,9.21628 -1.30901,4.46771 -2.94247,8.4711 -5.87442,14.39804 -2.76995,5.59921 -2.18698,5.29071 1.34888,-0.7133 6.0105,-10.20682 7.37649,-13.93742 8.92661,-24.37811 0.75794,-5.1032 1.54682,-11.81806 1.54682,-13.16194 0,-0.9089 -0.0638,-0.98756 -0.59105,-0.70586 -1.93291,1.03433 -3.92334,5.14147 -7.08405,14.61735 -2.28095,6.83817 -3.88858,10.89768 -6.46059,16.31415 -1.75963,3.70552 -4.71986,10.22011 -7.04259,15.49838 -0.66758,1.5177 -1.15647,2.81736 -1.08578,2.88805 0.17646,0.17647 1.22366,-1.66917 4.26457,-7.51181 1.42308,-2.73423 3.05611,-5.81022 3.62887,-6.83552 0.97268,-1.74061 1.74848,-3.32814 3.49366,-7.14624 0.6357,-1.39066 3.20175,-8.07703 6.08119,-15.84589 1.71924,-4.63876 1.19506,-2.36025 -0.77176,3.35515 -4.24278,12.32842 -4.33027,12.54772 -8.88866,22.27798 -2.9817,6.36459 -6.98976,15.44268 -6.96839,15.78275 0.0213,0.28383 0.52407,-0.60593 5.00975,-8.79182 z m 12.71122,-36.06775 c 0.0106,-0.36143 0.085,-0.43585 0.18815,-0.18816 0.085,0.2243 0.0744,0.49218 -0.0213,0.5953 -0.1063,0.1063 -0.17646,-0.085 -0.16264,-0.40821 z m 22.65695,42.16988 c 9.44494,-6.11924 10.89843,-7.09851 13.36031,-9.00145 11.92,-9.21352 19.51962,-18.49411 22.77442,-27.8116 0.93759,-2.6832 0.99393,-3.09608 0.99393,-7.24701 2.1e-4,-2.42095 -0.10949,-4.5113 -0.24343,-4.64535 -0.59211,-0.59211 -2.75655,2.39895 -5.03219,6.95255 -1.30317,2.60762 -3.1858,5.82341 -4.18356,7.14624 -3.72094,4.93311 -9.76131,10.91193 -19.43608,19.23824 -4.25372,3.66077 -4.77567,4.22471 -5.97881,6.45963 -0.72499,1.34676 -1.26246,2.50451 -1.19432,2.57265 0.0638,0.0638 2.26926,-1.46539 4.89133,-3.40787 5.02454,-3.72221 5.54415,-4.08567 5.54415,-3.87784 0,0.1839 -3.96724,3.39107 -7.53957,6.09575 -3.07131,2.32528 -5.51001,4.68829 -5.51001,5.33876 0,0.23387 0.13287,0.25513 0.388,0.0638 0.21367,-0.16158 2.27596,-1.52917 4.58295,-3.03953 2.30699,-1.51035 5.52278,-3.72146 7.14624,-4.91365 3.9278,-2.88444 4.12,-3.0002 2.48558,-1.49707 -1.73965,1.59986 -7.50969,6.0291 -11.73556,9.00835 -3.44912,2.43169 -5.66395,4.37874 -5.66395,4.97925 0,0.22111 0.16052,0.27958 0.38801,0.14032 0.21367,-0.13075 1.99627,-1.27904 3.9615,-2.55234 z m 21.57521,-19.91061 c 4.96245,-5.16315 7.56944,-8.2789 9.69253,-11.58398 1.55139,-2.415 3.89133,-7.00347 4.45113,-8.72835 0.21154,-0.6527 0.44435,-1.12607 0.51769,-1.05346 0.37632,0.37631 -1.66077,5.45899 -3.40298,8.49204 -2.45986,4.28232 -4.47834,6.8033 -8.80244,10.99399 -6.25478,6.06163 -7.09064,6.70125 -2.45603,1.87923 z m -1.06197,-2.98478 c 6.08863,-6.36289 9.39892,-10.81541 12.25497,-16.48382 1.87115,-3.71349 2.30348,-3.92982 0.71861,-0.3593 -1.30264,2.93492 -2.76038,5.51756 -4.4252,7.8404 -1.88964,2.63642 -7.15463,8.39062 -9.51701,10.40114 -1.7995,1.53151 -1.7067,1.39746 0.96842,-1.39821 z m -28.08916,22.77973 c 0.63676,-1.25661 0.92059,-2.50323 1.24981,-5.49088 0.23387,-2.12586 0.49537,-3.93429 0.57935,-4.01869 0.085,-0.0851 0.16796,0.6038 0.18497,1.52938 0.0213,0.9259 0.13501,2.03252 0.26151,2.45975 0.1956,0.65908 0.35399,0.37526 1.0439,-1.86424 1.00137,-3.2515 1.45401,-6.00507 1.45699,-8.86442 0.002,-1.89507 0.5262,-6.7054 1.23429,-11.3314 0.27426,-1.79068 0.45498,-1.28106 1.0997,3.10704 0.28915,1.96522 0.63676,4.06248 0.77389,4.66055 l 0.24769,1.08748 0.0531,-1.39821 c 0.0319,-0.76857 0.13607,-1.18847 0.23387,-0.93228 0.0957,0.25619 0.2732,0.53577 0.39013,0.62081 0.11694,0.085 0.38376,0.43478 0.59211,0.77708 0.63038,1.03327 0.11693,-4.16518 -0.7909,-8.02059 -0.43584,-1.84808 -0.70691,-3.44433 -0.60486,-3.54723 0.1063,-0.1063 0.18709,0.0319 0.18709,0.29552 0,0.76964 1.53322,5.85444 2.22748,7.38808 0.55384,1.2227 0.66546,1.32018 0.88976,0.77708 0.49537,-1.19825 0.29233,-4.37959 -0.48262,-7.58017 -0.43052,-1.77665 -0.73668,-3.27648 -0.67927,-3.33314 0.0531,-0.0532 0.65376,1.78154 1.32666,4.0847 0.6729,2.30317 1.31348,4.1875 1.42287,4.18761 0.10949,0 0.50919,-1.14797 0.88763,-2.55117 l 0.68885,-2.55118 -0.64951,-2.65311 c -1.58935,-6.49567 -2.21919,-11.42123 -2.43382,-19.03265 l -0.18178,-6.43698 -1.20112,0.95141 c -1.40023,1.10896 -2.4757,2.83745 -3.70679,5.95755 -0.48581,1.23015 -0.88764,1.98022 -0.89295,1.66695 -0.0213,-1.13171 1.25672,-5.41626 2.79567,-9.37287 1.42797,-3.67142 1.68161,-3.85904 1.05027,-0.77708 l -0.22323,1.08738 0.7016,-0.62081 c 1.98978,-1.76156 3.30167,-7.91252 2.2397,-10.5006 -0.34442,-0.83873 -0.37631,-0.84936 -0.93547,-0.3104 -0.89188,0.85787 -4.12616,4.71001 -5.55689,6.61678 -2.78908,3.71691 -4.7321,9.25213 -5.53543,15.76894 -0.47092,3.82554 -0.43053,4.91483 0.12863,3.46018 0.15733,-0.40821 0.66546,-1.58105 1.12936,-2.60635 0.46455,-1.02582 1.73604,-4.36758 2.82629,-7.42709 1.09025,-3.05951 2.07632,-5.64619 2.19112,-5.74803 0.11481,-0.10631 0.0957,0.0957 -0.0319,0.43584 -0.13181,0.3423 -1.18687,4.3965 -2.3442,9.01048 -1.15732,4.61399 -2.81767,10.9756 -3.68968,14.13706 -2.69691,9.77746 -3.94098,16.42727 -4.84849,25.91611 -0.39439,4.12 -0.62719,12.6046 -0.26576,9.65968 0.28064,-2.2818 1.08791,-6.83616 1.23833,-6.9837 0.17008,-0.1669 0.085,0.66971 -0.54215,5.27477 -0.19773,1.45263 -0.30615,2.9159 -0.24131,3.25192 0.15414,0.79727 1.65206,-3.07567 2.13882,-5.52915 0.56554,-2.84808 0.63782,-1.91166 0.1669,2.13914 -0.23706,2.04113 -0.39332,3.74953 -0.34655,3.79651 0.0744,0.0744 1.49388,-3.6209 2.29488,-5.9887 0.30615,-0.90464 0.31572,-0.89188 0.33166,0.46561 0.009,0.76857 -0.2445,2.5517 -0.56341,3.9615 -0.31891,1.4099 -0.52726,2.5634 -0.46348,2.5634 0.0638,0 0.48687,-0.73137 0.94079,-1.62581 z m 7.60026,-32.11168 c 0.0106,-0.36249 0.0851,-0.43584 0.18816,-0.18815 0.085,0.2243 0.0744,0.49218 -0.0213,0.5953 -0.1063,0.1063 -0.17646,-0.085 -0.16264,-0.40821 z m -67.292227,30.176 c -16.328081,-4.00848 -22.795681,-5.99391 -29.023247,-8.9097 -3.823411,-1.79015 -4.066846,-2.35451 -0.301902,-0.69841 8.628958,3.79428 18.146506,6.25074 33.555699,8.66106 5.591027,0.87487 5.805127,0.89507 5.385227,0.51025 -0.33273,-0.30509 -3.77941,-1.33846 -6.353967,-1.90506 -9.35586,-2.05909 -27.621638,-7.00539 -26.300925,-7.12232 0.145635,-0.0106 1.683312,0.38801 3.417757,0.88976 3.747298,1.08546 10.431012,2.49366 17.890315,3.76941 2.978725,0.50919 5.775033,0.99287 6.21417,1.07398 0.43903,0.085 -0.380567,-0.42946 -1.822356,-1.13574 -2.822033,-1.38195 -6.911521,-2.50004 -19.128748,-5.22991 -7.974236,-1.78175 -13.145785,-3.09641 -19.53387,-4.96564 -4.676495,-1.36834 -5.167191,-1.45232 -5.167191,-0.88445 0,0.65483 4.096186,4.39479 6.680206,6.09852 8.10669,5.34514 18.984176,8.81616 35.575677,11.35202 11.048322,1.68874 10.861232,1.4301 -1.087377,-1.50334 z M 60.557859,164.68367 c -0.874876,-0.39757 -1.685439,-0.87594 -1.800778,-1.06303 -0.115871,-0.18709 0.670774,0.0531 1.74635,0.53577 1.075896,0.48155 2.16593,0.95673 2.422227,1.05665 0.334856,0.12969 0.291272,0.18285 -0.155202,0.1871 -0.342297,0.004 -1.337402,-0.31891 -2.212491,-0.71649 z m 65.590211,0.75901 c 3.43615,-6.41211 6.09139,-12.38721 6.04387,-13.60045 -0.0106,-0.38375 -0.12118,-0.31572 -0.37419,0.24025 -0.19453,0.42734 -1.52959,3.22354 -2.96724,6.21407 -3.89325,8.09893 -5.28412,11.22626 -4.76728,10.7193 0.17434,-0.17115 1.10354,-1.77877 2.06505,-3.57306 z m 14.8916,-0.3997 c 0.53683,-0.84299 1.49835,-3.67161 1.3121,-3.85785 -0.12118,-0.12119 -2.99254,4.75271 -2.99254,5.07842 0,0.33167 1.28818,-0.6038 1.68044,-1.22057 z m -42.848953,-0.085 c -1.025827,-0.22856 -4.66055,-0.92591 -8.078307,-1.54969 -6.900254,-1.25863 -16.597135,-3.63547 -21.59254,-5.29274 -3.288812,-1.09099 -9.311638,-3.87794 -9.892054,-4.57721 -0.172211,-0.20729 0.759005,0.13395 2.07015,0.75901 5.367254,2.56021 13.424301,4.72306 26.46272,7.10393 4.699456,0.85787 8.824024,1.63452 9.16579,1.72552 0.481554,0.12862 0.516634,0.0957 0.155202,-0.12863 -0.256191,-0.16158 -2.982764,-0.87169 -6.058756,-1.57722 -12.588438,-2.88965 -22.15733,-5.80959 -27.131261,-8.27912 -2.065261,-1.02582 -0.865309,-0.92271 2.131381,0.18178 2.678631,0.98756 7.16463,2.24374 7.350236,2.05814 0.06378,-0.0638 -0.76751,-0.42628 -1.839685,-0.81216 -2.827987,-1.01945 -9.78203,-4.60017 -13.911489,-7.16229 -3.723804,-2.3104 -4.113618,-2.59252 -11.473209,-8.30229 -2.478036,-1.92249 -4.613351,-3.49546 -4.745273,-3.49546 -0.639946,0 2.466662,6.31505 5.233418,10.63724 1.714034,2.67767 4.614307,6.28763 6.098621,7.5908 1.074832,0.94397 4.627808,3.21068 5.032079,3.21068 0.121186,0 -1.134363,-1.43318 -2.789505,-3.18474 -4.057491,-4.29413 -4.881235,-5.5434 -1.854461,-2.81268 3.249267,2.93163 4.874325,4.17144 7.139223,5.44687 6.377455,3.59146 13.679747,5.55137 28.584959,7.67223 7.167075,1.01945 8.339707,1.15307 10.408582,1.18326 l 1.398212,0.0213 -1.864246,-0.41564 z M 58.109694,150.16466 c -2.057713,-1.08089 -5.105535,-3.05856 -4.713702,-3.05856 0.137132,0 1.516311,0.69948 3.06515,1.55363 1.548733,0.85467 2.902824,1.55798 3.009021,1.5634 0.106304,0.005 0.464546,0.21473 0.796212,0.46561 1.085463,0.82066 -0.181779,0.51238 -2.156681,-0.52408 z m 63.641036,6.45357 c 10.40326,-19.55758 12.95529,-26.44922 13.87768,-37.47553 l 0.2732,-3.26247 -0.10843,4.34996 c -0.23387,9.39827 -2.38066,15.68717 -12.35617,36.19712 -2.8081,5.77365 -3.99806,8.38903 -3.81671,8.38903 0.0638,0 0.80791,-1.29329 1.65918,-2.87402 7.16314,-13.29758 13.22987,-27.9381 14.80912,-35.73767 0.71117,-3.51216 0.78133,-4.53288 0.74625,-10.82947 -0.0213,-3.82354 -0.12651,-7.92144 -0.23281,-9.10642 l -0.19453,-2.15446 -0.93122,0.98969 c -0.96736,1.0269 -1.58349,1.29649 -1.30445,0.56873 0.34761,-0.90571 -1.70287,-9.211744 -2.27415,-9.211744 -0.38162,0 -0.62081,1.747626 -1.10162,8.078334 -1.16678,15.35134 -3.11894,22.05929 -11.07595,38.06155 -4.35716,8.76227 -9.26061,19.72979 -8.82115,19.72979 0.0957,0 4.64311,-8.09159 8.5471,-15.22465 1.88625,-3.44646 7.79129,-15.32373 9.00283,-18.10824 0.57829,-1.32964 1.1165,-2.35302 1.19538,-2.27404 0.30296,0.30296 -4.3494,11.52934 -8.71549,21.03232 -1.61517,3.51556 -3.9868,9.61971 -3.87167,9.96498 0.085,0.25938 1.85998,-2.71775 5.30315,-8.90269 0.47624,-0.85574 1.91675,-3.72412 3.19994,-6.37288 1.28319,-2.64876 2.53427,-5.1842 2.78015,-5.63418 1.01307,-1.85457 3.24438,-8.08235 3.90558,-10.90268 0.38907,-1.66162 0.75901,-2.97075 0.82067,-2.9092 0.0638,0.0638 -0.11906,1.3475 -0.40289,2.85754 -0.77177,4.11627 -3.11873,10.48639 -7.14337,19.38493 -1.65366,3.6563 -6.75994,15.38592 -8.18323,18.79762 -1.16402,2.79035 0.21473,0.47198 4.4135,-7.42136 z m 53.80563,0.84192 c 2.22152,-2.15009 3.54978,-3.52778 2.95172,-3.06153 -0.59849,0.46667 -1.78653,1.50929 -2.641,2.31805 -0.85468,0.80896 -2.74199,2.48877 -4.19452,3.73358 -1.45252,1.24481 -2.6951,2.40926 -2.76122,2.58774 -0.26364,0.71223 2.82086,-1.87678 6.64502,-5.57784 z m -61.88575,-6.00422 c 4.90515,-9.63799 6.90036,-14.32533 9.06342,-21.29223 1.92048,-6.18589 3.02348,-10.79138 4.05335,-16.92459 0.52832,-3.14914 0.59742,-12.0673 0.1265,-16.402033 -0.43053,-3.959692 -1.71468,-9.690928 -2.6409,-11.785422 -0.88975,-2.011578 -1.95715,-3.56924 -2.30061,-3.356952 -0.5379,0.332729 -0.74519,4.08194 -0.67078,12.125273 0.0744,7.506184 -0.006,9.035264 -0.72286,14.529584 -1.07738,8.25439 -2.36684,14.55267 -3.87093,18.90802 -1.0609,3.07227 -4.1268,10.39508 -7.33429,17.51814 -1.3171,2.92494 -2.09151,5.00115 -1.7354,4.65226 0.54215,-0.53152 10.40444,-20.31733 11.45588,-22.98384 0.53896,-1.36705 0.98543,-2.16496 0.99075,-1.77303 0.0106,0.91102 -1.74848,5.61664 -4.03857,10.78351 -0.98437,2.22153 -2.65099,5.97999 -3.70297,8.35204 -2.19187,4.94247 -4.45506,10.77001 -4.25883,10.96625 0.28277,0.28277 9.72186,-18.03542 11.99676,-23.28042 0.87062,-2.00829 2.06717,-5.08428 2.658,-6.83551 1.33889,-3.96862 1.40927,-3.23269 0.118,1.23694 -1.30998,4.53543 -3.35589,9.59153 -7.25563,17.93134 -3.35875,7.18271 -7.4374,17.50561 -6.56476,16.61521 0.0744,-0.0744 2.15488,-4.11426 4.63366,-8.98454 z m 7.35693,-29.4424 c 0,-0.18709 0.2732,-1.72626 0.607,-3.42095 0.33379,-1.6947 0.83448,-5.23536 1.11182,-7.86819 0.55065,-5.22729 1.13394,-8.18062 0.88338,-4.47614 -0.33273,4.92166 -0.83554,8.89593 -1.55022,12.25439 -0.68353,3.21261 -1.0524,4.44232 -1.0524,3.51089 z m 4.24066,-6.75475 c 0.69947,-8.10525 1.28116,-12.91412 1.31518,-10.87478 0.0425,2.80334 -0.46242,8.0995 -1.04602,10.87478 l -0.45711,2.17487 z m 47.28073,43.11037 c 3.51736,-2.68097 9.54285,-8.61524 11.00367,-10.8372 1.34654,-2.04814 1.71913,-2.3375 1.17826,-0.91527 -0.61762,1.62304 -0.30296,1.44052 1.56277,-0.90676 4.0509,-5.09757 6.47663,-9.48066 7.94585,-14.35722 0.76219,-2.52853 0.82066,-3.13117 0.78346,-8.01601 -0.0213,-2.90516 -0.12332,-5.66651 -0.2243,-6.13648 -0.27533,-1.28288 -0.99394,-1.04072 -1.38184,0.46561 -1.23121,4.78664 -3.30731,9.51384 -6.03814,13.74875 -2.27786,3.53235 -4.03601,5.75675 -8.76417,11.08807 -3.34643,3.77345 -3.88677,4.5433 -4.73826,6.75111 -0.52833,1.37057 -0.96098,2.65067 -0.96098,2.84468 0,0.19453 1.01413,-0.53258 2.25267,-1.6139 2.43063,-2.12213 2.15126,-1.62889 -0.93015,1.6426 -1.71924,1.82523 -3.15965,4.13073 -3.17985,5.08959 -0.008,0.3795 2.56669,-1.87381 7.11498,-6.22768 1.78516,-1.70893 2.81343,-2.54383 2.28499,-1.85552 -0.52832,0.68885 -2.96596,3.21132 -5.41679,5.60644 -4.65183,4.54616 -5.46558,5.41487 -5.07247,5.41487 0.12969,0 1.29105,-0.80365 2.5803,-1.78653 z m 18.03467,-22.21548 c 1.92144,-3.76026 3.36546,-7.79649 3.75857,-10.50637 0.18816,-1.2985 0.253,-1.43743 0.27851,-0.60168 0.085,2.88337 -1.77494,8.23967 -4.34791,12.49818 -0.69947,1.15775 -1.31763,2.10502 -1.37354,2.10502 -0.0531,0 0.70266,-1.57297 1.68448,-3.49546 z m 0.3625,-5.67032 c 0,-0.17115 0.135,-0.52089 0.30084,-0.77708 0.16583,-0.25619 0.30083,-0.32635 0.30083,-0.1552 0,0.17115 -0.135,0.52089 -0.30083,0.77708 -0.16584,0.25619 -0.30084,0.32635 -0.30084,0.1552 z m 1.85478,-3.96363 c 0,-0.0425 0.15201,-0.56766 0.33804,-1.16508 0.18603,-0.59742 0.44435,-2.27393 0.5751,-3.72646 l 0.23812,-2.641 0.0425,2.12713 c 0.0425,1.83512 -0.66864,5.48514 -1.06367,5.48514 -0.0744,0 -0.13288,-0.0319 -0.13288,-0.0744 z M 92.287694,155.14061 c -2.418294,-1.4183 -10.755874,-5.57114 -19.225803,-9.57612 -3.055157,-1.44455 -5.400101,-2.67799 -5.211094,-2.74103 0.18922,-0.0638 0.870624,0.1754 1.515566,0.52939 0.644198,0.35399 5.506192,2.38109 10.803818,4.50397 5.297518,2.12298 11.155893,4.50258 13.018753,5.28806 1.862752,0.78558 3.442419,1.37248 3.510241,1.30466 0.242372,-0.24238 -2.367375,-2.24162 -4.766534,-3.65088 -3.665763,-2.15318 -7.308458,-4.0256 -11.616931,-5.97127 -2.130744,-0.96205 -3.712749,-1.75199 -3.515769,-1.75507 0.897199,-0.0106 13.601614,4.74474 16.808147,6.29571 0.897199,0.43371 1.631224,0.67396 1.631224,0.53257 0,-0.37737 -2.674804,-2.67746 -4.815859,-4.14178 -3.262342,-2.2311 -26.923331,-12.55666 -33.876312,-14.78339 -7.488642,-2.39831 -14.066797,-5.78832 -17.590858,-9.06533 -1.513121,-1.40703 -1.255867,-1.3256 1.414366,0.44754 3.613143,2.39969 11.862492,5.7949 14.080085,5.7949 0.256191,0 -1.262458,-1.20792 -3.374811,-2.68415 -4.758774,-3.3257 -6.319944,-4.62005 -10.831456,-8.9801 -3.245334,-3.1365 -6.961166,-6.04603 -7.721447,-6.04603 -0.306154,0 -0.262569,0.35824 0.334855,2.79632 0.973738,3.97428 5.51374,12.64981 9.267203,17.71027 1.579136,2.12904 4.734218,5.30879 7.207577,7.26392 1.561914,1.23482 2.038047,1.1334 0.663333,-0.14138 -1.767505,-1.63941 -6.033138,-7.26243 -7.229901,-9.53073 -0.682467,-1.29403 -0.149887,-0.71436 1.99829,2.17496 2.594226,3.48877 8.309516,9.28017 10.865898,11.01047 5.692117,3.85297 12.051712,7.08002 18.632737,9.45494 2.722747,0.98224 2.473891,0.60486 -0.772825,-1.17263 -5.828078,-3.19091 -8.699756,-4.93726 -8.699756,-5.2904 0,-0.49644 0.579353,-0.28277 4.294972,1.58296 3.05941,1.53651 10.050553,4.58061 14.502748,6.31474 3.868908,1.50706 10.188321,3.77281 10.563891,3.78758 0.171148,0.007 -0.667585,-0.56234 -1.864135,-1.26341 z M 61.50938,143.12079 c -4.254578,-2.34643 -10.797759,-7.64809 -13.326502,-10.79786 -0.950351,-1.18348 -0.598487,-0.92803 1.558088,1.12968 2.816187,2.68788 7.864425,6.4592 11.709203,8.7476 1.153497,0.68672 2.097258,1.37205 2.097258,1.52353 0,0.4316 -0.350801,0.32742 -2.038047,-0.60273 z m -2.044426,-5.35343 c -0.695223,-0.60487 -0.697349,-0.62188 -0.05315,-0.30934 0.37525,0.18177 0.76751,0.46879 0.87275,0.63888 0.30509,0.49431 -0.03189,0.3593 -0.820662,-0.32954 z M 42.791175,121.93009 c -1.742418,-1.03008 -3.168051,-1.95046 -3.168051,-2.04496 0,-0.0957 0.453915,0.1063 1.009881,0.44435 2.504719,1.52906 4.320379,2.54128 4.558498,2.54128 0.142447,0 0.432655,0.20942 0.645262,0.46561 0.212606,0.25619 0.327414,0.46561 0.254064,0.46561 -0.07441,0 -1.558087,-0.84298 -3.300505,-1.87306 z M 174.02899,137.0833 c 0.96417,-3.45911 2.1486,-7.82722 2.63239,-9.70709 1.69671,-6.59356 2.99042,-16.25733 2.62877,-19.63524 -0.23812,-2.22335 0.0638,-6.30871 0.46774,-6.30871 0.14032,0 0.19241,1.36324 0.11693,3.02944 -0.085,1.9122 -0.0319,2.80016 0.1382,2.40789 0.34761,-0.78133 1.38545,-8.008605 1.24215,-8.646637 -0.0638,-0.281704 -0.93653,0.679278 -2.16083,2.378007 -1.25236,1.73764 -2.22291,2.80111 -2.48569,2.7234 -1.53002,-0.45286 -1.9732,-0.20198 -2.975,1.68098 -1.15499,2.17094 -2.68916,7.25439 -3.32889,11.0302 -1.22143,7.20824 -0.82279,18.22997 0.9546,26.39917 0.60062,2.759 0.40077,3.14488 2.76878,-5.35141 z m 0.86212,-9.51287 c 0.10949,-0.57617 0.19985,-1.52046 0.19985,-2.09726 0,-0.57722 0.11693,-1.04815 0.25938,-1.04815 0.28489,0 -0.14457,3.72912 -0.46242,4.01646 -0.10843,0.0957 -0.10737,-0.2934 0.003,-0.87063 z m 0.89401,-8.11711 c 0,-0.59849 0.0638,-0.84299 0.14245,-0.54321 0.0744,0.29871 0.0744,0.78877 0,1.08748 -0.0744,0.29872 -0.14245,0.0532 -0.14245,-0.54427 z m -2.15817,-2.95174 c 0.002,-0.85468 0.0638,-1.16711 0.13394,-0.69523 0.0744,0.47199 0.0744,1.17137 -0.004,1.55353 -0.0744,0.38163 -0.13182,-0.004 -0.12969,-0.85894 z m 0.31041,-3.41778 c 0.002,-0.85468 0.0638,-1.16711 0.13394,-0.69523 0.0744,0.47199 0.0744,1.17137 -0.004,1.55353 -0.0744,0.38163 -0.13182,-0.004 -0.12969,-0.85894 z m 2.48558,-1.2428 c 0.002,-0.85468 0.0638,-1.16721 0.13394,-0.69522 0.0744,0.47198 0.0744,1.17147 -0.004,1.55352 -0.0744,0.38163 -0.13182,-0.004 -0.12969,-0.85893 z m -2.20324,-1.2429 c 0.006,-0.51239 0.0744,-0.6846 0.1552,-0.3827 0.0744,0.30191 0.0744,0.72181 -0.0106,0.93229 -0.085,0.21048 -0.14989,-0.0319 -0.14351,-0.54959 z m 2.44965,-3.13299 c 0.0106,-0.36143 0.085,-0.43585 0.18816,-0.18816 0.085,0.2243 0.0744,0.49219 -0.0213,0.5953 -0.10631,0.10631 -0.17647,-0.085 -0.16265,-0.4082 z m -67.51472,20.06652 c 5.88825,-12.58464 7.19259,-16.35938 7.82255,-22.63684 0.80365,-8.008282 0.0319,-19.013863 -1.8703,-26.506545 -1.04178,-4.113088 -0.51664,-3.37428 0.80896,1.139252 1.08015,3.677138 1.99064,9.14623 2.216,13.3113 0.14457,2.663004 0.28383,3.528313 0.50601,3.13212 0.4858,-0.867435 0.0213,-9.495223 -0.68779,-12.714938 -0.96629,-4.403827 -1.73455,-6.435814 -4.75547,-12.583547 l -2.82448,-5.748032 -0.60274,1.398101 c -0.33167,0.768573 -0.72712,1.715948 -0.87913,2.104274 -0.2445,0.622937 -0.49112,0.290208 -2.10194,-2.836279 -1.78749,-3.469208 -2.83363,-5.075026 -5.64195,-8.659892 l -1.394167,-1.779624 -0.35399,1.023701 c -0.194535,0.563407 -0.934406,3.866889 -1.644193,7.341625 -1.589022,7.784166 -3.17815,12.746298 -5.755155,17.970999 -1.98936,4.033041 -5.494818,10.257631 -8.299418,14.736933 -0.828102,1.32252 -1.506743,2.510991 -1.508125,2.640999 -0.0012,0.129691 0.445411,1.324003 0.992873,2.653333 0.80259,1.95036 1.052403,2.31414 1.292967,1.88435 0.163707,-0.2934 1.038584,-2.56905 1.942799,-5.057931 0.904642,-2.488985 1.652166,-4.409461 1.661202,-4.267759 0.0091,0.141384 -0.486869,2.308908 -1.102046,4.815965 -1.372163,5.591685 -1.624315,7.989055 -0.971612,9.235145 0.46986,0.89721 0.478364,0.87913 2.07993,-4.21825 1.890711,-6.019654 2.863705,-8.84307 2.674166,-7.760158 -0.07441,0.427339 -0.790897,4.062488 -1.590191,8.078328 -1.244918,6.25067 -1.401184,7.43585 -1.085888,8.23377 l 0.367809,0.93229 0.620811,-1.70894 c 0.341234,-0.93973 0.971613,-2.82748 1.399377,-4.19454 0.428402,-1.36707 1.107999,-3.53429 1.510783,-4.816 1.053465,-3.352924 0.939721,-2.16817 -0.450726,4.68545 -1.193787,5.88361 -1.399165,7.30861 -1.306468,9.06337 0.12969,2.45498 0.948225,0.19028 3.622285,-10.02031 1.972777,-7.533754 1.957575,-7.481559 1.991061,-6.810467 0.02126,0.481557 -0.384818,2.795787 -1.970544,11.160417 -0.436907,2.30701 -0.796212,4.26438 -0.797275,4.34985 -8.51e-4,0.085 0.250876,-0.26363 0.559155,-0.77708 1.630374,-2.70703 3.244696,-8.40269 5.680105,-20.040591 1.071965,-5.122438 1.186985,-5.48557 1.056655,-3.336649 -0.15308,2.525554 -1.007756,7.771835 -2.034327,12.488 -0.744123,3.41767 -0.740934,3.74094 0.02126,2.3019 2.510247,-4.75093 5.174097,-16.836451 5.320167,-24.136937 l 0.0425,-2.074827 0.24768,1.553516 c 0.13608,0.854679 0.16797,3.056645 0.0744,4.893673 -0.0957,1.837027 -0.10631,3.34005 -0.0106,3.34005 0.41883,0 0.90464,-5.571038 0.89082,-10.226272 -0.0106,-4.805866 -0.65377,-13.089126 -1.24407,-16.097616 -0.32423,-1.65376 0.0532,-1.442854 1.09344,0.61337 2.1605,4.26372 2.93386,7.736649 3.13222,14.066904 0.17434,5.570399 -0.22961,9.511701 -1.45263,14.170337 -0.30828,1.173907 -0.46667,2.134358 -0.35187,2.134358 0.44116,0 2.29914,-2.748366 3.46645,-5.126584 0.67078,-1.367166 1.57021,-3.81395 1.99829,-5.437307 0.73775,-2.798966 0.76857,-2.855307 0.59317,-1.087483 -0.30296,3.05133 -1.5482,7.412954 -3.4017,11.919364 -0.95886,2.330487 -2.3458,5.915034 -3.0828,7.965744 -0.73668,2.05071 -2.49016,6.66472 -3.89602,10.25333 -3.630149,9.26682 -5.834242,16.04227 -5.522561,16.97731 0.05315,0.15946 0.502815,-0.66014 1.000314,-1.81927 0.4975,-1.15956 2.785147,-6.09319 5.084597,-10.9635 2.29945,-4.87031 4.73464,-10.11354 5.41148,-11.65155 1.26288,-2.86914 1.73954,-3.70139 1.33495,-2.33028 -0.31678,1.07452 -3.45475,8.92559 -5.58783,13.98183 -2.48835,5.89858 -4.800661,12.97486 -4.997534,15.29461 l -0.165834,1.94961 0.972676,-2.01966 c 0.534705,-1.11076 1.242902,-2.69596 1.573822,-3.52268 0.3306,-0.82704 1.98032,-4.39202 3.66523,-7.92288 2.9512,-6.18487 5.62398,-12.02935 5.62398,-12.29809 0,-0.37844 1.28064,-3.04284 1.40363,-2.91974 0.26682,0.26682 -1.91187,6.24291 -4.73666,12.99235 -3.52502,8.42263 -4.16061,10.13571 -5.51311,14.86111 -1.03114,3.60283 -1.419997,6.14039 -0.83873,5.47462 0.14138,-0.16265 0.93228,-1.90305 1.75783,-3.86827 0.82491,-1.96523 3.57541,-8.08724 6.1118,-13.60448 2.5364,-5.51717 4.61165,-10.07846 4.61165,-10.13608 0,-0.35186 1.32072,-3.00585 1.43765,-2.88902 0.22005,0.22005 -1.39108,4.62688 -4.62834,12.65963 -2.80056,6.94914 -6.75908,18.02276 -7.15985,20.0287 -0.21473,1.07239 1.33592,-2.05038 6.55499,-13.20499 z m 4.174,-29.672447 c -0.003,-0.512382 0.10631,-1.281699 0.24344,-1.708932 l 0.24875,-0.777077 -0.006,0.777077 c -0.003,0.427339 -0.11268,1.196231 -0.24343,1.708932 l -0.23706,0.93228 z M 96.196679,88.822764 c 0.01063,-0.362494 0.08504,-0.435843 0.188157,-0.188157 0.08504,0.2243 0.07441,0.492185 -0.02126,0.595299 -0.106303,0.106303 -0.176463,-0.08504 -0.162644,-0.408205 z m 84.797301,46.428716 c 3.97319,-4.92142 5.50598,-7.94011 5.79715,-11.41697 0.0957,-1.12798 0.51982,-2.94694 0.9461,-4.04197 0.42521,-1.09515 0.95885,-2.84289 1.1857,-3.88392 l 0.4114,-1.89275 0.0213,1.50176 c 0.0106,0.82598 -0.26151,2.62496 -0.61231,3.99766 -0.79621,3.11714 -0.64632,4.06813 0.31253,1.99298 1.76517,-3.81843 2.05219,-10.89763 0.58999,-14.56097 -0.40608,-1.01626 -0.76964,-1.09131 -1.04816,-0.2158 -0.28914,0.9089 -0.85361,0.58787 -1.1603,-0.65908 -0.66439,-2.70065 -1.21706,-4.37983 -1.38662,-4.21027 -0.1063,0.1063 -0.28276,0.71117 -0.40076,1.35389 -0.17646,0.9546 -0.22111,0.76751 -0.24769,-1.02265 -0.0319,-2.246197 -0.48368,-4.825541 -0.99712,-5.703712 -0.15839,-0.271074 -0.2934,-0.349738 -0.29765,-0.175401 -0.005,0.175401 -0.14351,1.433713 -0.30828,2.796415 -0.16477,1.362598 -0.51982,5.203888 -0.78877,8.536198 -0.61124,7.55555 -1.12416,11.05571 -2.68501,18.33175 -1.06197,4.95225 -2.76984,11.46194 -3.54511,13.51562 -0.38375,1.01732 1.48293,-0.86425 4.21046,-4.24225 z m 1.5549,-13.5272 c 3.2e-4,-0.30934 0.71011,-1.82045 1.57807,-3.35845 1.42851,-2.53237 2.48091,-4.88031 3.3425,-7.45701 l 0.31147,-0.93228 0.0213,0.83874 c 0.0744,2.38142 -1.52173,6.55321 -3.71658,9.74317 -1.09928,1.59785 -1.54118,1.93217 -1.54023,1.1653 z m 2.71127,-12.21367 c 0.0957,-1.2816 0.22111,-2.38854 0.28276,-2.45977 0.23387,-0.27001 0.0531,3.57564 -0.19241,4.16871 -0.15414,0.36675 -0.19134,-0.33167 -0.0957,-1.70894 z M 86.058639,135.6633 c -0.162644,-0.14139 -3.091512,-1.84383 -6.50927,-3.7827 -9.623744,-5.45963 -14.142591,-8.38817 -12.943278,-8.38817 0.186031,0 1.685014,0.77814 3.331652,1.72848 6.608664,3.81533 19.398865,9.85655 19.398865,9.16271 0,-0.58042 -3.498229,-2.94003 -8.396898,-5.66246 -2.031988,-1.12937 -7.933947,-4.48578 -10.090097,-5.73825 -3.229282,-1.87593 -2.848928,-1.9834 0.655891,-0.18496 4.915784,2.52183 15.942626,7.34725 16.200411,7.08957 0.339108,-0.33911 -0.365683,-1.35558 -1.561914,-2.2515 -0.721799,-0.54109 -5.157836,-2.96182 -9.857293,-5.3798 -4.69935,-2.41787 -8.684129,-4.54161 -8.855065,-4.71924 -0.171148,-0.17753 0.667585,0.16158 1.864241,0.75476 2.059839,1.02051 16.002687,6.75484 16.424498,6.75484 0.418835,0 0.172212,-1.16987 -0.345485,-1.63782 -0.298713,-0.27001 -2.710947,-1.56521 -5.359707,-2.87752 -2.648759,-1.31243 -8.800744,-4.45445 -13.67103,-6.98236 -7.788205,-4.04242 -9.304303,-4.71649 -12.583547,-5.59456 -6.628755,-1.77474 -10.686246,-3.49421 -14.308744,-6.06358 -2.742412,-1.945147 -3.119151,-2.61868 -0.59955,-1.07133 2.862216,1.75753 7.643313,3.86468 10.930637,4.81727 1.456674,0.42203 2.807683,0.76433 3.002218,0.76114 0.751564,-0.0106 -4.203446,-2.94802 -8.459936,-5.00936 -2.454969,-1.1889 -4.398725,-2.22653 -4.319529,-2.305832 0.07441,-0.07441 0.907831,0.206228 1.84213,0.633565 0.934406,0.427337 2.17858,0.857877 2.766012,0.955667 l 1.06803,0.17859 -1.389703,-1.184427 c -4.808205,-4.098208 -5.95745,-5.201636 -7.724424,-7.416997 -2.281056,-2.859984 -4.403827,-5.108193 -4.823193,-5.108193 -0.430529,0 -0.03189,4.628021 0.709043,8.274331 0.8483,4.164429 1.935889,7.374696 3.790457,11.191646 1.961189,4.03657 2.65333,4.71171 1.811089,1.76677 -0.930154,-3.25332 -0.729241,-3.52716 0.617622,-0.8398 3.117345,6.22069 10.455462,13.04147 19.808452,18.41202 2.102466,1.20717 4.871667,2.51896 5.317822,2.51896 0.110556,0 -0.637819,-0.49538 -1.662371,-1.10173 -2.872421,-1.69926 -9.635756,-6.75801 -12.577913,-9.40785 -3.250436,-2.9274 -6.281143,-6.29022 -7.496509,-8.31764 l -0.913145,-1.52398 1.012007,1.2428 c 5.791617,7.11014 17.896587,16.86211 25.193245,20.29602 2.101829,0.98862 3.615801,1.36546 2.029437,0.50494 -2.793013,-1.51589 -11.932227,-8.58867 -11.3668,-8.79659 0.170085,-0.0638 0.749438,0.2126 1.288502,0.61124 6.755257,5.00103 15.110696,9.52615 23.816299,12.89852 2.715731,1.0524 3.464,1.25438 2.936204,0.79408 z M 63.105311,121.75309 c -0.804716,-0.61443 -1.391085,-1.19102 -1.30179,-1.28032 0.08504,-0.085 0.763258,0.29872 1.497176,0.86212 1.874658,1.43935 1.974902,1.53577 1.596994,1.53577 -0.180716,0 -0.986495,-0.50282 -1.79238,-1.11799 z m -9.210862,-3.77102 c -1.83437,-1.5465 -3.763881,-3.42851 -2.755063,-2.68715 1.100027,0.80791 4.490996,3.84767 4.292953,3.84767 -0.08504,0 -0.78133,-0.52195 -1.53789,-1.16052 z m 85.594361,11.77714 c 0.96417,-1.90325 1.54268,-5.78821 1.27958,-8.59653 -0.32529,-3.47018 -0.64314,-3.26065 -1.05347,0.6931 -0.20835,2.01062 -0.6527,4.90695 -0.98862,6.43634 -0.33486,1.52928 -0.61018,2.9008 -0.61018,3.04772 0,0.57616 0.66971,-0.1956 1.37152,-1.58116 z m -58.216371,-16.6584 c -0.205165,-0.24662 -4.36173,-2.42235 -9.237225,-4.83428 -4.875601,-2.41203 -8.800107,-4.44998 -8.721123,-4.52897 0.07441,-0.0744 1.387258,0.43053 2.907395,1.13299 2.640574,1.21962 12.56048,5.25726 14.026934,5.70926 0.493247,0.15202 0.699475,0.085 0.699475,-0.21686 0,-0.78027 -1.335807,-1.68853 -5.592723,-3.80461 -4.428064,-2.20124 -7.887917,-4.1769 -7.679563,-4.38514 0.06378,-0.0638 1.085463,0.31146 2.259902,0.84405 2.92738,1.32741 9.81509,4.06772 9.926815,3.94951 0.05315,-0.0531 -0.190283,-0.68992 -0.533642,-1.41576 -0.576164,-1.21782 -0.926965,-1.47093 -4.551695,-3.28479 -5.78205,-2.893374 -12.227432,-6.325483 -12.937963,-6.889528 -0.342297,-0.271073 0.357179,-0.01063 1.553517,0.56766 5.981899,2.918238 14.447788,6.466658 14.447788,6.055678 0,-0.1637 -0.468798,-1.31136 -1.040709,-2.550858 L 75.758912,97.195425 72.52793,96.172787 C 65.698049,94.010153 59.642162,91.250944 54.665573,88.034419 53.11195,87.029853 51.640393,86.20866 51.395364,86.20866 c -1.02689,0 -8.089469,-1.892943 -9.668392,-2.59125 -2.430199,-1.074726 -2.474315,-1.505786 -0.06378,-0.631441 1.112996,0.403952 3.032302,0.878065 4.265102,1.054529 1.232905,0.176463 2.715836,0.396511 3.295615,0.490058 1.009881,0.162644 0.939721,0.06378 -1.680868,-2.416168 -3.844034,-3.634191 -6.731657,-7.342157 -8.547105,-10.974753 -1.500365,-3.002218 -3.254475,-8.630446 -3.030601,-9.723776 0.111619,-0.546399 0.221111,-0.379503 3.030176,4.646836 3.213762,5.750265 10.056718,13.646156 14.747245,17.016396 2.885178,2.07302 6.162721,3.91228 9.496287,5.328878 3.222478,1.369505 9.077664,3.429982 9.251789,3.255751 0.274262,-0.274262 -1.022638,-2.093112 -1.794825,-2.518431 -0.427339,-0.234931 -2.279887,-1.141485 -4.116915,-2.013917 -2.112034,-1.003503 -3.340049,-1.762083 -3.340049,-2.06441 0,-0.262569 0.174337,-0.41033 0.388007,-0.326351 0.213669,0.08504 1.576903,0.597425 3.029431,1.140635 1.452529,0.544273 2.955551,1.116503 3.34005,1.272875 0.883381,0.359306 0.878065,0.310406 -0.155203,-1.415216 -0.748375,-1.249914 -1.221106,-1.602416 -3.80619,-2.83766 C 62.565186,81.24302 58.25278,78.74468 54.47391,76.203074 c -3.442951,-2.315605 -3.838081,-2.885816 -0.614433,-0.88657 4.104902,2.545964 14.350414,7.520853 14.350414,6.968076 0,-0.358243 -1.554898,-3.146047 -1.917711,-3.437956 -0.226426,-0.182841 -2.230243,-1.267454 -4.45177,-2.410746 -4.033998,-2.076103 -5.766529,-3.183465 -3.417757,-2.184639 0.68353,0.290208 2.346645,0.938658 3.695847,1.440091 1.349201,0.501751 2.712328,1.050276 3.029431,1.220149 0.316784,0.170085 0.576164,0.246624 0.576164,0.172211 0,-0.277451 -2.230987,-4.095015 -2.63494,-4.508216 C 62.858475,72.33948 61.238944,71.607051 59.489404,70.946907 50.342962,67.495664 44.14601,62.690436 37.782482,54.115161 36.17103,51.943597 34.756346,50.16695 34.638668,50.16695 c -0.117997,0 -0.466671,0.873813 -0.774951,1.941842 -0.407142,1.410007 -0.561281,3.005832 -0.562344,5.82574 -9.57e-4,5.909295 1.374289,10.566655 4.339194,14.693562 0.60274,0.838733 1.039646,1.579348 0.971612,1.646851 -0.06378,0.06378 -0.845111,-0.225363 -1.728704,-0.65164 -0.88338,-0.426276 -1.73774,-0.774951 -1.899002,-0.774951 -0.915272,0 -0.747312,6.043343 0.280641,10.061076 0.663332,2.592951 2.004774,5.776841 1.717436,4.075988 -0.08504,-0.512382 -0.229615,-1.701065 -0.316784,-2.640999 l -0.159455,-1.708932 0.474113,1.666623 c 0.999251,3.509391 5.050257,9.878022 5.803841,9.124438 0.165833,-0.165833 1.132024,0.551714 2.375879,1.766123 2.886347,2.817675 6.753024,5.795129 9.876746,7.605489 1.442749,0.83661 2.677993,1.4654 2.744964,1.39821 0.06378,-0.0638 -0.850426,-0.96099 -2.039748,-1.98639 -2.095238,-1.80707 -4.867841,-4.914842 -3.049204,-3.417773 0.415646,0.342297 1.505787,1.289993 2.423503,2.107143 5.09331,4.53504 11.690175,8.00426 21.171366,11.13385 4.968085,1.63984 5.565935,1.76805 4.985519,1.06857 z M 58.902716,101.0974 c -0.760068,-0.49963 -1.274895,-0.90784 -1.14276,-0.90784 0.297649,0 2.991694,1.56533 2.991694,1.73839 0,0.27427 -0.527265,0.0425 -1.848934,-0.83023 z M 48.762019,95.140476 c -2.402349,-2.48973 -3.18304,-3.603895 -1.251828,-1.786533 1.38662,1.304766 3.491638,3.728482 3.238424,3.728482 -0.06378,0 -0.955667,-0.873813 -1.986596,-1.941949 z m -6.571564,-3.720935 c -0.49431,-0.614433 -2.001266,-3.705945 -1.870726,-3.836486 0.06378,-0.06378 0.649514,0.795149 1.301365,1.909208 0.65164,1.114164 1.118099,2.09258 1.036458,2.174434 -0.08504,0.08504 -0.292334,-0.03189 -0.466672,-0.247687 z m 17.629127,-7.912154 c -2.494832,-1.448596 -2.852862,-1.696708 -2.687347,-1.862115 0.21048,-0.210481 4.551588,2.128936 4.551588,2.452842 0,0.392259 -0.37525,0.273199 -1.864241,-0.591046 z M 36.266491,81.702463 c 0.0064,-0.512382 0.07441,-0.684594 0.155202,-0.382692 0.07441,0.301901 0.07441,0.721799 -0.01063,0.93228 -0.08504,0.21048 -0.149888,-0.03189 -0.143509,-0.549588 z m 17.416627,-2.050485 c -0.726052,-0.514508 -1.3205,-0.992873 -1.3205,-1.063139 0,-0.223237 2.110014,1.107468 2.499084,1.576265 0.531517,0.639946 0.31891,0.547462 -1.178584,-0.513445 z M 39.668515,63.219826 c -0.537894,-1.201652 -0.965234,-2.42818 -0.950351,-2.725723 0.02126,-0.349738 0.112681,-0.266821 0.271073,0.235993 0.135005,0.42734 0.61337,1.602204 1.064734,2.611022 0.450726,1.008819 0.768573,1.885927 0.705854,1.948965 -0.06378,0.06378 -0.55384,-0.868498 -1.091416,-2.070044 z m -3.886236,-6.726873 c -0.109492,-0.801527 -0.14032,-1.517161 -0.06378,-1.590404 0.07441,-0.07441 0.230678,0.515571 0.348675,1.307956 0.11906,0.793023 0.148825,1.508231 0.06378,1.590404 -0.08504,0.08504 -0.239183,-0.506004 -0.348675,-1.307956 z m 45.36249,33.531251 c 1.623996,-3.452093 3.292214,-10.719519 3.595497,-15.663154 0.03189,-0.576164 0.146698,0.909957 0.246624,3.302206 l 0.181778,4.349931 0.06378,-4.51704 C 85.38659,66.641411 82.793427,56.756585 77.814499,49.222657 76.454986,47.165582 70.515396,41.020613 67.042679,38.078563 l -1.941842,-1.645256 v 1.617511 c 0,1.393105 0.342296,2.313372 2.469319,6.63322 2.718813,5.522563 4.684468,10.891943 5.509063,15.048083 0.790896,3.984567 0.773888,13.449494 -0.03189,17.564176 l -0.596362,3.050692 1.482081,2.945877 c 0.815346,1.620275 1.639728,2.893364 1.83235,2.829157 0.192409,-0.06378 0.783455,-1.118417 1.312101,-2.342713 0.529391,-1.224188 1.055592,-2.319644 1.170294,-2.434239 0.232804,-0.232804 -0.373125,1.896238 -1.332512,4.683298 l -0.633568,1.840217 0.650576,1.344524 c 0.358242,0.739871 0.74306,1.343993 0.855742,1.343461 0.57829,-0.0028 3.08726,-7.332483 4.253939,-12.427175 l 0.747312,-3.262448 -0.180715,2.174965 c -0.208355,2.508227 -1.507275,7.819246 -2.885816,11.797754 -0.954604,2.754212 -1.148076,3.904626 -0.728178,4.324524 0.324225,0.323162 0.9461,-0.586794 2.147646,-3.139987 z m -6.565292,-7.976681 c 0.106303,-0.49431 0.383755,-1.332724 0.624001,-1.864241 l 0.435843,-0.966297 -0.193472,0.93228 c -0.106303,0.512382 -0.386944,1.35154 -0.624,1.864241 l -0.430529,0.93228 z m 4.732411,-18.055297 c -0.225363,-5.973076 -0.885507,-9.675939 -2.35802,-13.225088 -0.527265,-1.270537 -0.746249,-2.030499 -0.485806,-1.688734 1.008818,1.325602 2.317624,4.453577 2.794926,6.680206 0.589983,2.752511 0.905704,10.12539 0.51876,12.117513 -0.218985,1.127666 -0.310405,0.376314 -0.46986,-3.883897 z M 76.35166,65.434337 C 75.756361,60.202194 75.140121,56.96207 73.952394,52.823788 73.366663,50.782446 72.932945,49.066817 72.988223,49.01122 c 0.208354,-0.208354 1.734445,3.581784 2.478568,6.155387 1.063033,3.676074 1.495368,7.021333 1.382155,10.68986 l -0.09567,3.107033 z m 12.754057,13.365195 c 3.576256,-5.378309 4.430191,-8.393177 4.413501,-15.584064 -0.0074,-3.213018 -0.160518,-5.631205 -0.408205,-6.478443 -0.217922,-0.744123 -0.327414,-1.421168 -0.243434,-1.505892 0.249812,-0.249813 1.470174,3.959798 1.661733,5.731768 0.220048,2.034432 0.712232,2.142755 0.705854,0.155202 -0.0068,-2.207281 -0.783455,-5.089483 -2.052611,-7.613336 -1.253528,-2.493875 -2.814061,-4.892503 -3.182933,-4.892503 -0.131816,0 -0.487932,0.790896 -0.793023,1.757938 l -0.55384,1.758044 -0.822788,-1.058781 c -1.798333,-2.312948 -5.329728,-6.110102 -6.915667,-7.436129 -2.873166,-2.402348 -2.772178,-2.342393 -3.092151,-1.836815 -0.537895,0.850427 -0.280641,1.497707 1.863391,4.692441 4.005827,5.967336 6.71603,12.44227 7.846459,18.745843 0.428403,2.390868 0.546399,12.274736 0.170086,14.370081 -0.129691,0.726051 -0.186031,1.3205 -0.123312,1.3205 0.06378,0 0.749438,-0.95673 1.527259,-2.126173 z m 1.53704,-6.728893 c -0.01063,-1.025827 0.09567,-2.143925 0.247687,-2.48569 0.227489,-0.528327 0.265758,-0.481554 0.261506,0.310406 -0.0031,0.512382 -0.114808,1.631224 -0.247687,2.485584 l -0.242372,1.553622 -0.02126,-1.864241 z m 0.291271,-4.660656 c 0,-0.68353 0.120123,-1.522369 0.266821,-1.864241 0.208355,-0.48368 0.266821,-0.346548 0.266821,0.621875 0,0.68353 -0.120122,1.522476 -0.266821,1.864241 -0.208354,0.48368 -0.266821,0.346549 -0.266821,-0.621875 z m -20.582127,2.295408 c 0.831292,-8.657448 -1.099708,-15.180431 -7.253712,-24.510778 -2.849248,-4.32006 -3.51747,-5.466435 -2.999348,-5.146143 0.511319,0.31572 3.521297,3.541813 4.181228,4.481003 0.87275,1.242048 0.362494,-0.08504 -0.816409,-2.131275 -0.951415,-1.646532 -8.602489,-9.631824 -9.229253,-9.631824 -0.16477,0 -0.416709,0.453916 -0.560219,1.009882 -0.1754,0.681404 -0.473049,1.040709 -0.914208,1.105554 -0.99181,0.145636 -3.976382,-1.495475 -7.52351,-4.135305 -1.753261,-1.304873 -3.246078,-2.314117 -3.317407,-2.242894 -0.07441,0.07441 0.545335,1.164447 1.370887,2.429244 4.364388,6.689667 8.652876,13.729284 12.990476,21.324018 1.636752,2.865937 3.137755,5.378628 3.335373,5.5839 0.274262,0.284892 0.379503,-0.04252 0.445411,-1.363553 0.161581,-3.249054 0.65908,-2.911966 0.595298,0.40289 l -0.06378,3.141369 1.134682,1.674596 c 0.624,0.920586 1.663753,2.723171 2.310396,4.00487 l 1.175714,2.330275 0.555966,-2.330275 c 0.306154,-1.281699 0.65164,-3.378957 0.76751,-4.660549 0.116934,-1.281699 0.317847,-2.679907 0.447537,-3.10714 0.29446,-0.972675 0.307217,5.615366 0.02126,9.63193 l -0.212607,2.951724 1.219937,2.475698 1.220043,2.475697 0.415646,-1.388214 c 0.228552,-0.763258 0.545336,-2.732314 0.702665,-4.374913 z M 62.416785,61.47507 c 0.110555,-0.495373 0.291271,-2.473465 0.401826,-4.395961 0.110556,-1.922495 0.319973,-3.495465 0.464546,-3.495465 0.378439,0 0.327414,4.960431 -0.07441,6.817444 -0.184968,0.861056 -0.484743,1.657906 -0.666522,1.770375 -0.220047,0.136068 -0.263632,-0.09567 -0.12969,-0.696287 z M 58.637277,50.476611 c -0.03189,-0.939721 -0.12969,-2.687666 -0.209418,-3.883897 -0.139257,-2.09088 -0.132879,-2.116605 0.170086,-0.667585 0.173274,0.829166 0.266821,2.576792 0.209417,3.883791 -0.08504,1.933445 -0.116933,2.057926 -0.170085,0.667585 z m 4.314107,0.12969 c 0.01063,-0.362494 0.08504,-0.435843 0.188157,-0.188157 0.08504,0.2243 0.07441,0.492185 -0.02126,0.595299 -0.106303,0.106303 -0.176463,-0.08504 -0.162644,-0.408205 z m -0.285956,-1.372375 c 0,-0.42734 0.07441,-0.601677 0.156266,-0.388007 0.08504,0.213669 0.08504,0.563407 0,0.777077 -0.08504,0.213669 -0.156266,0.04252 -0.156266,-0.388007 z m -0.334855,-1.424039 c 0.01063,-0.362495 0.08504,-0.435844 0.188156,-0.188157 0.08504,0.2243 0.07441,0.492184 -0.02126,0.595298 -0.106304,0.106303 -0.176464,-0.08504 -0.162644,-0.408204 z M 54.43245,44.245856 c -0.113745,-1.619744 -0.48368,-3.912281 -0.821725,-5.09448 -0.338044,-1.182305 -0.561281,-2.203348 -0.495373,-2.269044 0.196661,-0.196661 1.442217,3.358015 1.754429,5.004334 0.340171,1.795144 0.34336,3.835211 0.0079,4.694567 -0.152014,0.38907 -0.313595,-0.457104 -0.445411,-2.335377 z m -3.777807,-5.806181 c -1.233756,-3.133608 -1.245024,-3.181445 -0.49431,-2.100021 0.70798,1.019448 1.694262,3.714025 1.529917,4.177082 -0.05315,0.159455 -0.523013,-0.774951 -1.035395,-2.077061 z m 7.023884,1.104173 c -0.208354,-0.630379 -0.682467,-1.538953 -1.052402,-2.01955 -0.494311,-0.642072 -0.525139,-0.755817 -0.114808,-0.428403 0.703728,0.561282 1.832138,2.743795 1.669175,3.228751 -0.06378,0.200913 -0.293398,-0.150951 -0.501752,-0.780267 z m 3.384698,28.174628 c 0,-0.276389 -3.19771,-5.877297 -3.705946,-6.490561 -0.268948,-0.324225 -1.467305,-1.042836 -2.663536,-1.596463 -2.059839,-0.953541 -6.990824,-4.000406 -6.990824,-4.319635 0,-0.08504 1.024764,0.403953 2.277761,1.079935 2.290411,1.235351 5.786727,2.591462 6.036858,2.341331 0.172212,-0.172212 -3.266275,-6.257119 -3.752932,-6.640343 -0.201976,-0.159455 -0.949288,-0.363557 -1.6595,-0.452852 -1.745288,-0.221111 -4.935769,-1.833944 -6.636409,-3.354082 l -1.392467,-1.244599 1.857118,1.151159 c 1.872746,1.160938 5.420725,2.576792 6.487585,2.58891 0.419898,0.0048 0.521949,-0.141383 0.37525,-0.536831 -0.38907,-1.05134 -12.722273,-22.433825 -12.859936,-22.296163 -0.220047,0.220048 0.552778,3.808105 1.396294,6.479188 0.423087,1.340378 0.698413,2.507907 0.612307,2.594438 -0.08504,0.08504 -0.579353,-0.660143 -1.095243,-1.660245 -1.081955,-2.096939 -1.122563,-2.012109 -0.528327,1.102791 0.406079,2.127235 0.346549,5.632906 -0.09567,5.617173 -0.106303,-0.0036 -0.3997,-0.450726 -0.655891,-0.993936 -0.256191,-0.54321 -0.661207,-1.047088 -0.899326,-1.1215 -1.458056,-0.452852 2.016254,11.15515 4.122335,13.7734 0.461357,0.574038 0.464546,0.517697 0.03189,-0.737745 -0.255127,-0.747312 -0.460293,-1.726472 -0.456041,-2.174859 0.0055,-0.612307 0.192409,-0.366746 0.748376,0.987558 2.364823,5.751008 6.420719,9.50309 15.245275,14.103365 3.616651,1.885396 4.194516,2.133614 4.194516,1.801629 z M 40.614402,46.469933 c -0.209417,-0.921649 -0.322099,-1.735401 -0.250876,-1.807368 0.241309,-0.241309 0.859994,2.066642 0.745186,2.779406 -0.07441,0.47305 -0.239182,0.153077 -0.49431,-0.971612 z m 4.218647,-2.284883 c -0.669711,-1.02689 -1.599333,-2.924935 -1.255974,-2.563398 0.406079,0.42734 2.008601,3.262449 1.844363,3.262449 -0.07441,0 -0.338045,-0.314658 -0.588921,-0.699476 z m -3.65492,-2.718707 c -0.182842,-0.342296 -0.26257,-0.621874 -0.177527,-0.621874 0.08504,0 0.30509,0.279578 0.487932,0.621874 0.182842,0.342297 0.262569,0.621874 0.177527,0.621874 -0.08504,0 -0.305091,-0.279577 -0.487932,-0.621874 z"
       id="path137" />
  </g>
</svg>
