<?xml version="1.0" encoding="utf-8"?>
<!-- Generator: Adobe Illustrator 28.0.0, SVG Export Plug-In . SVG Version: 6.00 Build 0)  -->
<svg version="1.1" id="Lager_1" xmlns="http://www.w3.org/2000/svg" xmlns:xlink="http://www.w3.org/1999/xlink" x="0px" y="0px"
	 viewBox="0 0 141.7 141.7" style="enable-background:new 0 0 141.7 141.7;" xml:space="preserve">
<style type="text/css">
	.st0{fill:#F0F5F5;}
	.st1{fill:#82A99E;}
</style>
<g>
	<path class="st0" d="M70.9,141.7c39.1,0,70.9-31.7,70.9-70.9S110,0,70.9,0S0,31.7,0,70.9S31.7,141.7,70.9,141.7"/>
	<g>
		<path class="st1" d="M55.4,59.9c-0.9-1-2-1.7-3.4-2.2c-1.3-0.5-2.9-0.8-4.6-0.8c-0.9,0-1.9,0.1-2.8,0.3c-0.9,0.2-1.8,0.5-2.7,0.9
			c-0.8,0.4-1.6,0.9-2.4,1.6c-0.7,0.7-1.3,1.5-1.9,2.4c-0.6-1.6-1.5-2.8-2.7-3.8c-1.2-0.9-2.7-1.4-4.5-1.4c-0.9,0-1.7,0.1-2.4,0.3
			c-0.7,0.2-1.4,0.4-2,0.8c-0.6,0.3-1.2,0.7-1.8,1.1c-0.5,0.4-1.1,0.9-1.6,1.4l-0.5-1.6c-0.2-0.5-0.4-0.9-0.8-1.1
			c-0.4-0.3-0.9-0.4-1.4-0.4h-5.6v30.2h9V65.7c0.9-0.9,1.9-1.5,2.9-1.9c0.2-0.1,0.4-0.1,0.7-0.1c1.7-0.2,3,0.2,3.8,1
			c0.7,0.7,1,1.9,1,3.6v19.2h9V68.4c0-1.5,0.4-2.7,1.2-3.5c0.8-0.8,1.8-1.2,3-1.2c2.7,0,4,1.6,4,4.7v19.2h9V68.4
			c0-1.8-0.2-3.4-0.7-4.8C57,62.1,56.3,60.9,55.4,59.9z"/>
		<path class="st1" d="M72.1,44.6c-0.5-0.5-1-0.8-1.7-1.1c-0.6-0.3-1.3-0.4-2-0.4c-0.7,0-1.4,0.1-2,0.4c-0.6,0.3-1.1,0.6-1.6,1.1
			c-0.5,0.5-0.8,1-1.1,1.6c-0.3,0.6-0.4,1.3-0.4,2c0,0.7,0.1,1.3,0.4,1.9c0.3,0.6,0.6,1.1,1.1,1.6c0.5,0.5,1,0.8,1.6,1.1
			c0.6,0.3,1.3,0.4,2,0.4c0.7,0,1.4-0.1,2-0.4c0.6-0.3,1.2-0.6,1.7-1.1c0.5-0.5,0.9-1,1.1-1.6c0.3-0.6,0.4-1.2,0.4-1.9
			c0-0.7-0.1-1.4-0.4-2S72.6,45.1,72.1,44.6z"/>
		<path class="st1" d="M71.2,57.4H64v30.2h9V59.2C73.1,58.2,72.2,57.4,71.2,57.4z"/>
		<path class="st1" d="M103.9,60.1c-0.9-1-1.9-1.8-3.2-2.4c-1.3-0.6-2.7-0.9-4.4-0.9c-1,0-1.9,0.1-2.7,0.3c-0.8,0.2-1.6,0.4-2.3,0.8
			c-0.7,0.3-1.4,0.7-2,1.2c-0.6,0.5-1.2,1-1.8,1.5L87,58.9c-0.2-0.5-0.4-0.9-0.8-1.1c-0.4-0.3-0.9-0.4-1.4-0.4h-5.6v30.2h9V66
			c0.8-0.7,1.6-1.3,2.5-1.7c0.9-0.4,1.8-0.6,2.8-0.6c1.3,0,2.3,0.4,3,1.2c0.7,0.8,1,2,1,3.5v19.2h9V68.4c0-1.6-0.2-3.2-0.7-4.6
			C105.4,62.4,104.8,61.2,103.9,60.1z"/>
		<path class="st1" d="M127.1,81.1c-0.2-0.3-0.3-0.5-0.5-0.6c-0.2-0.1-0.4-0.2-0.7-0.2c-0.2,0-0.4,0-0.5,0.1
			c-0.1,0.1-0.3,0.1-0.5,0.2c-0.2,0.1-0.4,0.2-0.6,0.2c-0.2,0.1-0.5,0.1-0.8,0.1c-0.6,0-1.1-0.2-1.5-0.7c-0.3-0.5-0.5-1-0.5-1.7
			V65.4h0v-0.5h5.9c0.7,0,1.3-0.6,1.3-1.3v-6.2h-7.1v-8.7H117c-1.1,0-1.7,0.5-2,1.4l-1.9,7.2l0,0.1l-3.9,0.6v5.4
			c0,0.8,0.7,1.5,1.5,1.5h1.8l0,0.5v5.6v8.3c0,1.3,0.2,2.6,0.6,3.6c0.4,1.1,1,2,1.7,2.8c0.7,0.8,1.7,1.4,2.8,1.8
			c1.1,0.4,2.4,0.6,3.8,0.6c1.6,0,3.1-0.2,4.5-0.7c1.5-0.4,2.8-1.1,3.9-2L127.1,81.1z"/>
	</g>
</g>
</svg>
